<svg width="853" height="302" viewBox="0 0 853 302" fill="none" xmlns="http://www.w3.org/2000/svg">
<path d="M109.56 166.36V163.06C109.56 163.06 133.98 155.58 133.98 133.8V133.58C133.98 108.06 110.66 92 80.08 92H13.2V246H88.44C119.02 246 142.34 227.74 142.34 202.22V202C142.34 172.74 109.56 166.36 109.56 166.36ZM42.68 119.28H77.66C91.74 119.28 104.28 126.54 104.28 138.42C104.28 150.3 91.74 154.7 77.66 154.7H42.68V119.28ZM112.86 199.8C112.86 211.68 100.1 218.94 86.02 218.94H42.68V181.76H86.02C100.1 181.76 112.86 187.92 112.86 199.8ZM262.847 189.46C262.627 186.82 262.187 184.18 261.747 181.54C257.127 157.34 239.307 139.3 209.387 139.3C172.647 139.3 156.147 163.5 156.147 193.42C156.147 223.34 172.207 247.76 209.387 247.76C242.827 247.76 261.747 229.06 262.847 206.84H233.147C231.387 216.08 224.127 220.48 208.947 220.48C193.547 220.48 186.947 208.38 185.627 197.6H262.847V189.46ZM187.607 181.54C190.467 174.28 196.627 166.58 209.387 166.58C221.267 166.58 227.867 174.28 230.947 181.54H187.607ZM339.568 126.54H354.968V99.48H329.448C312.948 99.48 299.748 112.68 299.748 128.96V140.84H274.228V168.12C274.228 168.12 299.748 175.38 299.748 203.1V246.22H329.228V203.1C329.228 178.9 314.488 167.24 314.488 167.24V164.16L320.648 168.12H354.968V140.84H329.448V136.44C329.448 130.72 333.848 126.54 339.568 126.54ZM440.404 140.84V147L443.484 150.96H440.404C440.404 150.96 425.224 139.3 413.124 139.3C387.604 139.3 366.484 156.9 366.484 193.42C366.484 228.84 386.724 247.76 412.904 247.76C429.844 247.76 437.104 229.94 437.104 229.94H440.404L445.464 246H469.664V140.84H440.404ZM440.404 199.36C440.404 206.84 436.664 220.48 421.924 220.48C408.724 220.48 395.744 213.44 395.744 193.42C395.744 170.32 411.584 166.58 422.144 166.58C432.264 166.58 440.404 172.74 440.404 172.74V199.36ZM574.085 92.22H548.565L482.125 246.22H514.465L523.705 224.44H598.725L608.185 246.22H640.745L574.085 92.22ZM535.805 197.16L559.785 141.28H562.865L587.065 197.16H535.805ZM803.663 168.12V140.84H769.343L763.183 144.8V141.72C763.183 141.72 778.143 132.92 778.143 108.72H748.443C748.443 142.38 722.923 140.84 722.923 140.84H710.823C696.083 140.84 685.963 156.9 685.963 156.9H682.663L677.603 140.84H653.183V246H682.663V187.04C682.663 179.34 690.803 168.12 710.823 168.12H748.443V216.52C748.443 232.8 759.443 246.22 775.723 246.22H803.663V218.94H788.483C782.763 218.94 778.143 214.32 778.143 208.6V168.12H803.663ZM846.88 246.22V221.8H816.96V246.22H846.88Z" fill="white"/>
<path d="M363.64 5.8V16.204H352.984V5.8H348.16V31H352.984V20.668H363.64V31H368.5V5.8H363.64ZM389.328 21.748C389.292 21.316 389.22 20.884 389.148 20.452C388.392 16.492 385.476 13.54 380.58 13.54C374.568 13.54 371.868 17.5 371.868 22.396C371.868 27.292 374.496 31.288 380.58 31.288C386.052 31.288 389.148 28.228 389.328 24.592H384.468C384.18 26.104 382.992 26.824 380.508 26.824C377.988 26.824 376.908 24.844 376.692 23.08H389.328V21.748ZM377.016 20.452C377.484 19.264 378.492 18.004 380.58 18.004C382.524 18.004 383.604 19.264 384.108 20.452H377.016ZM397.31 31.036V4.108H392.486V31.036H397.31ZM405.994 31.036V4.108H401.17V31.036H405.994ZM417.845 13.54C411.833 13.54 409.133 17.5 409.133 22.396C409.133 27.292 411.761 31.288 417.845 31.288C423.569 31.288 426.593 27.292 426.593 22.396C426.593 17.5 423.497 13.54 417.845 13.54ZM417.773 26.824C414.965 26.824 413.957 24.952 413.957 22.396C413.957 20.056 414.641 18.004 417.845 18.004C420.725 18.004 421.733 20.056 421.733 22.396C421.733 24.88 420.689 26.824 417.773 26.824ZM428.637 27.076V31.036H430.509V31.432H429.933L428.637 34.06H430.869L433.533 31.036V27.076H428.637ZM450.853 31.036V13.792H446.029V31.036H450.853ZM450.853 11.452V7.024H446.029V11.452H450.853ZM475.828 13.792V14.8L476.332 15.448H475.828C475.828 15.448 473.344 13.54 471.364 13.54C467.188 13.54 463.732 16.42 463.732 22.396C463.732 28.192 467.044 31.288 471.328 31.288C474.1 31.288 475.288 28.372 475.288 28.372H475.828L476.656 31H480.616V13.792H475.828ZM475.828 23.368C475.828 24.592 475.216 26.824 472.804 26.824C470.644 26.824 468.52 25.672 468.52 22.396C468.52 18.616 471.112 18.004 472.84 18.004C474.496 18.004 475.828 19.012 475.828 19.012V23.368ZM501.411 13.54C498.675 13.54 497.523 16.42 497.523 16.42H497.019C497.019 16.42 496.623 13.54 493.851 13.54C491.403 13.54 489.819 16.42 489.819 16.42H489.279L488.451 13.792H484.455V31H489.279V21.1C489.279 19.84 489.927 17.968 490.899 17.968C491.835 17.968 492.159 18.76 492.159 22.036V31H497.019V21.1C497.019 19.84 497.379 17.968 498.495 17.968C499.179 17.968 499.863 18.76 499.863 22.036V31H504.723V22.396C504.723 16.132 504.075 13.54 501.411 13.54Z" fill="white"/>
</svg>
