<svg width="91" height="16" viewBox="0 0 91 16" fill="none" xmlns="http://www.w3.org/2000/svg">
<path d="M13.1645 9.7085C13.1645 10.3482 13.041 10.9942 12.794 11.6465C12.5534 12.2925 12.1829 12.8878 11.6825 13.4325C11.1885 13.9772 10.5584 14.4173 9.79202 14.753C9.03202 15.0823 8.12952 15.247 7.08452 15.247C5.71019 15.247 4.53219 14.9398 3.55052 14.3255C2.57519 13.7048 1.82786 12.8498 1.30852 11.7605C0.795523 10.6712 0.539023 9.414 0.539023 7.989C0.539023 6.564 0.795523 5.31 1.30852 4.227C1.82786 3.13767 2.57519 2.28583 3.55052 1.6715C4.53219 1.05717 5.71019 0.749999 7.08452 0.749999C8.22452 0.749999 9.19669 0.943166 10.001 1.3295C10.8117 1.71583 11.4609 2.2225 11.9485 2.8495C12.4425 3.4765 12.7845 4.14783 12.9745 4.8635C13.1012 5.35117 13.1645 5.823 13.1645 6.279H9.31702C9.31702 6.07633 9.30436 5.899 9.27902 5.747C9.22202 5.33533 9.09852 4.9775 8.90852 4.6735C8.71852 4.3695 8.46836 4.13517 8.15802 3.9705C7.85402 3.7995 7.49619 3.714 7.08452 3.714C6.59052 3.714 6.14402 3.85967 5.74502 4.151C5.34602 4.44233 5.02619 4.9015 4.78552 5.5285C4.55119 6.1555 4.43402 6.97567 4.43402 7.989C4.43402 8.996 4.55119 9.81617 4.78552 10.4495C5.02619 11.0828 5.34602 11.5483 5.74502 11.846C6.14402 12.1437 6.59052 12.2925 7.08452 12.2925C7.43919 12.2925 7.75269 12.2292 8.02502 12.1025C8.30369 11.9695 8.53802 11.7858 8.72802 11.5515C8.91802 11.3172 9.06369 11.0448 9.16502 10.7345C9.26636 10.4178 9.31702 10.0758 9.31702 9.7085H13.1645ZM21.2561 15.247C20.3505 15.247 19.4891 15.0918 18.6721 14.7815C17.8615 14.4712 17.1426 14.0088 16.5156 13.3945C15.8886 12.7802 15.3946 12.0202 15.0336 11.1145C14.6726 10.2088 14.4921 9.16383 14.4921 7.9795C14.4921 6.78883 14.6695 5.74383 15.0241 4.8445C15.3851 3.94517 15.876 3.1915 16.4966 2.5835C17.1236 1.9755 17.8425 1.5195 18.6531 1.2155C19.4701 0.905166 20.3378 0.749999 21.2561 0.749999C22.1745 0.749999 23.0421 0.905166 23.8591 1.2155C24.6761 1.5195 25.395 1.9755 26.0156 2.5835C26.6426 3.1915 27.1335 3.94517 27.4881 4.8445C27.8428 5.74383 28.0201 6.78883 28.0201 7.9795C28.0201 9.16383 27.8396 10.2088 27.4786 11.1145C27.1176 12.0202 26.6205 12.7802 25.9871 13.3945C25.3601 14.0088 24.6381 14.4712 23.8211 14.7815C23.0105 15.0918 22.1555 15.247 21.2561 15.247ZM21.2561 12.283C21.7248 12.283 22.1776 12.1563 22.6146 11.903C23.058 11.6433 23.419 11.2 23.6976 10.573C23.9826 9.946 24.1251 9.0815 24.1251 7.9795C24.1251 6.87117 23.9826 6.00983 23.6976 5.3955C23.4126 4.77483 23.0516 4.341 22.6146 4.094C22.1776 3.84067 21.7248 3.714 21.2561 3.714C20.7938 3.714 20.341 3.84067 19.8976 4.094C19.4606 4.341 19.0996 4.77483 18.8146 5.3955C18.5296 6.00983 18.3871 6.87117 18.3871 7.9795C18.3871 9.08783 18.5296 9.9555 18.8146 10.5825C19.0996 11.2032 19.4606 11.6433 19.8976 11.903C20.341 12.1563 20.7938 12.283 21.2561 12.283ZM33.468 15H29.7345V0.9875H35.5865L39.453 13.8505L38.712 14.0025V0.9875H42.4455V15H36.546L32.6795 2.1845L33.468 2.0325V15ZM54.4591 3.8375H49.4431L51.1721 2.1085V15H47.3436V2.1085L49.0726 3.8375H44.0661V0.9875H54.4591V3.8375ZM53.9884 15L57.2469 0.9875H63.3364L66.5759 15H62.6524L60.2869 3.277H60.3059L57.9119 15H53.9884ZM56.8384 12.055V9.1765H63.7544V12.055H56.8384ZM79.6645 9.7085C79.6645 10.3482 79.541 10.9942 79.294 11.6465C79.0534 12.2925 78.6829 12.8878 78.1825 13.4325C77.6885 13.9772 77.0584 14.4173 76.292 14.753C75.532 15.0823 74.6295 15.247 73.5845 15.247C72.2102 15.247 71.0322 14.9398 70.0505 14.3255C69.0752 13.7048 68.3279 12.8498 67.8085 11.7605C67.2955 10.6712 67.039 9.414 67.039 7.989C67.039 6.564 67.2955 5.31 67.8085 4.227C68.3279 3.13767 69.0752 2.28583 70.0505 1.6715C71.0322 1.05717 72.2102 0.749999 73.5845 0.749999C74.7245 0.749999 75.6967 0.943166 76.501 1.3295C77.3117 1.71583 77.9609 2.2225 78.4485 2.8495C78.9425 3.4765 79.2845 4.14783 79.4745 4.8635C79.6012 5.35117 79.6645 5.823 79.6645 6.279H75.817C75.817 6.07633 75.8044 5.899 75.779 5.747C75.722 5.33533 75.5985 4.9775 75.4085 4.6735C75.2185 4.3695 74.9684 4.13517 74.658 3.9705C74.354 3.7995 73.9962 3.714 73.5845 3.714C73.0905 3.714 72.644 3.85967 72.245 4.151C71.846 4.44233 71.5262 4.9015 71.2855 5.5285C71.0512 6.1555 70.934 6.97567 70.934 7.989C70.934 8.996 71.0512 9.81617 71.2855 10.4495C71.5262 11.0828 71.846 11.5483 72.245 11.846C72.644 12.1437 73.0905 12.2925 73.5845 12.2925C73.9392 12.2925 74.2527 12.2292 74.525 12.1025C74.8037 11.9695 75.038 11.7858 75.228 11.5515C75.418 11.3172 75.5637 11.0448 75.665 10.7345C75.7664 10.4178 75.817 10.0758 75.817 9.7085H79.6645ZM90.548 3.8375H85.532L87.261 2.1085V15H83.4325V2.1085L85.1615 3.8375H80.155V0.9875H90.548V3.8375Z" fill="#CB450C"/>
</svg>
