<svg width="3000" height="800" viewBox="0 0 2528 397" fill="none" xmlns="http://www.w3.org/2000/svg">
<path d="M0.600002 390V6.49999H143.08C168.907 6.49999 192.567 11.2667 214.06 20.8C235.553 30.3333 254.1 43.68 269.7 60.84C285.3 78 297.347 98.1933 305.84 121.42C314.333 144.647 318.58 169.953 318.58 197.34C318.58 224.727 314.333 250.12 305.84 273.52C297.347 296.92 285.3 317.373 269.7 334.88C254.1 352.213 235.553 365.733 214.06 375.44C192.567 385.147 168.907 390 143.08 390H0.600002ZM105.64 359.32L58.32 312H129.04C143.947 312 157.64 307.407 170.12 298.22C182.773 288.86 192.913 275.6 200.54 258.44C208.167 241.28 211.98 220.913 211.98 197.34C211.98 173.593 208.167 153.313 200.54 136.5C192.913 119.687 182.773 106.86 170.12 98.02C157.64 89.0067 143.947 84.5 129.04 84.5H58.32L105.64 37.18V359.32ZM371.449 84.5L418.769 37.18V186.68L395.369 158.6H533.169V236.6H395.369L418.769 208.78V359.32L371.449 312H562.029V390H313.209V6.49999H562.029V84.5H371.449ZM637.62 390L549.22 6.49999H665.44L718.48 329.94H714.58L767.36 6.49999H883.58L795.7 390H637.62ZM928.621 84.5L975.941 37.18V186.68L952.541 158.6H1090.34V236.6H952.541L975.941 208.78V359.32L928.621 312H1119.2V390H870.381V6.49999H1119.2V84.5H928.621ZM1124.59 390V6.49999H1229.63V359.06L1182.31 306.54H1366.39V390H1124.59ZM1508.84 396.76C1484.05 396.76 1460.48 392.513 1438.12 384.02C1415.93 375.527 1396.26 362.873 1379.1 346.06C1361.94 329.247 1348.42 308.447 1338.54 283.66C1328.66 258.873 1323.72 230.273 1323.72 197.86C1323.72 165.273 1328.57 136.673 1338.28 112.06C1348.16 87.4467 1361.59 66.82 1378.58 50.18C1395.74 33.54 1415.41 21.06 1437.6 12.74C1459.96 4.24664 1483.7 -3.09944e-05 1508.84 -3.09944e-05C1533.97 -3.09944e-05 1557.72 4.24664 1580.08 12.74C1602.44 21.06 1622.11 33.54 1639.1 50.18C1656.26 66.82 1669.69 87.4467 1679.4 112.06C1689.1 136.673 1693.96 165.273 1693.96 197.86C1693.96 230.273 1689.02 258.873 1679.14 283.66C1669.26 308.447 1655.65 329.247 1638.32 346.06C1621.16 362.873 1601.4 375.527 1579.04 384.02C1556.85 392.513 1533.45 396.76 1508.84 396.76ZM1508.84 315.64C1521.66 315.64 1534.06 312.173 1546.02 305.24C1558.15 298.133 1568.03 286 1575.66 268.84C1583.46 251.68 1587.36 228.02 1587.36 197.86C1587.36 167.527 1583.46 143.953 1575.66 127.14C1567.86 110.153 1557.98 98.28 1546.02 91.52C1534.06 84.5867 1521.66 81.12 1508.84 81.12C1496.18 81.12 1483.79 84.5867 1471.66 91.52C1459.7 98.28 1449.82 110.153 1442.02 127.14C1434.22 143.953 1430.32 167.527 1430.32 197.86C1430.32 228.193 1434.22 251.94 1442.02 269.1C1449.82 286.087 1459.7 298.133 1471.66 305.24C1483.79 312.173 1496.18 315.64 1508.84 315.64ZM1793.91 390H1688.87V6.49999H1835.77C1864.89 6.49999 1890.29 12.3067 1911.95 23.92C1933.62 35.36 1950.43 51.0467 1962.39 70.98C1974.35 90.9133 1980.33 113.447 1980.33 138.58C1980.33 163.713 1974.35 186.593 1962.39 207.22C1950.43 227.673 1933.62 244.053 1911.95 256.36C1890.29 268.493 1864.89 274.56 1835.77 274.56H1793.91V390ZM1793.91 244.14L1746.59 196.82H1825.11C1833.78 196.82 1841.84 194.74 1849.29 190.58C1856.92 186.247 1863.07 179.747 1867.75 171.08C1872.43 162.413 1874.77 151.58 1874.77 138.58C1874.77 125.58 1872.43 115.093 1867.75 107.12C1863.07 99.1467 1856.92 93.4267 1849.29 89.96C1841.84 86.32 1833.78 84.5 1825.11 84.5H1746.59L1793.91 37.18V244.14ZM2031.79 84.5L2079.11 37.18V186.68L2055.71 158.6H2193.51V236.6H2055.71L2079.11 208.78V359.32L2031.79 312H2222.37V390H1973.55V6.49999H2222.37V84.5H2031.79ZM2227.76 390V6.49999H2397.8C2441.48 6.49999 2473.72 16.2067 2494.52 35.62C2515.5 54.86 2525.98 81.7266 2525.98 116.22C2525.98 135.633 2522.26 152.187 2514.8 165.88C2507.35 179.573 2498.08 190.147 2486.98 197.6C2475.89 205.053 2464.88 209.213 2453.96 210.08C2465.23 210.773 2475.72 213.46 2485.42 218.14C2495.13 222.82 2502.93 230.36 2508.82 240.76C2514.89 250.987 2517.92 264.853 2517.92 282.36C2517.92 293.453 2517.92 304.027 2517.92 314.08C2517.92 324.133 2517.92 334.707 2517.92 345.8C2517.92 354.987 2518.62 363.74 2520 372.06C2521.56 380.207 2523.9 386.187 2527.02 390H2421.98C2419.21 385.667 2417.04 379.513 2415.48 371.54C2414.1 363.567 2413.4 354.987 2413.4 345.8C2413.4 336.267 2413.4 327.687 2413.4 320.06C2413.4 312.433 2413.4 303.853 2413.4 294.32C2413.4 280.453 2410.46 269.533 2404.56 261.56C2398.67 253.413 2388.01 249.34 2372.58 249.34H2302.9L2330.2 217.36V390H2227.76ZM2330.2 208L2302.9 171.34H2373.62C2382.46 171.34 2390.18 169.52 2396.76 165.88C2403.52 162.24 2408.72 157.04 2412.36 150.28C2416.18 143.347 2418.08 135.287 2418.08 126.1C2418.08 114.833 2414.01 105.04 2405.86 96.72C2397.89 88.4 2386.97 84.24 2373.1 84.24H2300.3L2330.2 53.04V208Z" fill="#777777"/>
</svg>
