<svg width="2756" height="397" viewBox="0 0 2756 397" fill="none" xmlns="http://www.w3.org/2000/svg">
<path d="M0.600002 390V6.49999H143.08C168.907 6.49999 192.567 11.2667 214.06 20.8C235.553 30.3333 254.1 43.68 269.7 60.84C285.3 78 297.347 98.1933 305.84 121.42C314.333 144.647 318.58 169.953 318.58 197.34C318.58 224.727 314.333 250.12 305.84 273.52C297.347 296.92 285.3 317.373 269.7 334.88C254.1 352.213 235.553 365.733 214.06 375.44C192.567 385.147 168.907 390 143.08 390H0.600002ZM105.64 359.32L58.32 312H129.04C143.947 312 157.64 307.407 170.12 298.22C182.773 288.86 192.913 275.6 200.54 258.44C208.167 241.28 211.98 220.913 211.98 197.34C211.98 173.593 208.167 153.313 200.54 136.5C192.913 119.687 182.773 106.86 170.12 98.02C157.64 89.0067 143.947 84.5 129.04 84.5H58.32L105.64 37.18V359.32ZM400.049 84.5L447.369 37.18V186.68L423.969 158.6H561.769V236.6H423.969L447.369 208.78V359.32L400.049 312H590.629V390H341.809V6.49999H590.629V84.5H400.049ZM694.82 390L606.42 6.49999H722.64L775.68 329.94H771.78L824.56 6.49999H940.78L852.9 390H694.82ZM1014.42 84.5L1061.74 37.18V186.68L1038.34 158.6H1176.14V236.6H1038.34L1061.74 208.78V359.32L1014.42 312H1205V390H956.181V6.49999H1205V84.5H1014.42ZM1238.99 390V6.49999H1344.03V359.06L1296.71 306.54H1480.79V390H1238.99ZM1651.84 396.76C1627.05 396.76 1603.48 392.513 1581.12 384.02C1558.93 375.527 1539.26 362.873 1522.1 346.06C1504.94 329.247 1491.42 308.447 1481.54 283.66C1471.66 258.873 1466.72 230.273 1466.72 197.86C1466.72 165.273 1471.57 136.673 1481.28 112.06C1491.16 87.4467 1504.59 66.82 1521.58 50.18C1538.74 33.54 1558.41 21.06 1580.6 12.74C1602.96 4.24664 1626.7 -3.09944e-05 1651.84 -3.09944e-05C1676.97 -3.09944e-05 1700.72 4.24664 1723.08 12.74C1745.44 21.06 1765.11 33.54 1782.1 50.18C1799.26 66.82 1812.69 87.4467 1822.4 112.06C1832.1 136.673 1836.96 165.273 1836.96 197.86C1836.96 230.273 1832.02 258.873 1822.14 283.66C1812.26 308.447 1798.65 329.247 1781.32 346.06C1764.16 362.873 1744.4 375.527 1722.04 384.02C1699.85 392.513 1676.45 396.76 1651.84 396.76ZM1651.84 315.64C1664.66 315.64 1677.06 312.173 1689.02 305.24C1701.15 298.133 1711.03 286 1718.66 268.84C1726.46 251.68 1730.36 228.02 1730.36 197.86C1730.36 167.527 1726.46 143.953 1718.66 127.14C1710.86 110.153 1700.98 98.28 1689.02 91.52C1677.06 84.5867 1664.66 81.12 1651.84 81.12C1639.18 81.12 1626.79 84.5867 1614.66 91.52C1602.7 98.28 1592.82 110.153 1585.02 127.14C1577.22 143.953 1573.32 167.527 1573.32 197.86C1573.32 228.193 1577.22 251.94 1585.02 269.1C1592.82 286.087 1602.7 298.133 1614.66 305.24C1626.79 312.173 1639.18 315.64 1651.84 315.64ZM1965.51 390H1860.47V6.49999H2007.37C2036.49 6.49999 2061.89 12.3067 2083.55 23.92C2105.22 35.36 2122.03 51.0467 2133.99 70.98C2145.95 90.9133 2151.93 113.447 2151.93 138.58C2151.93 163.713 2145.95 186.593 2133.99 207.22C2122.03 227.673 2105.22 244.053 2083.55 256.36C2061.89 268.493 2036.49 274.56 2007.37 274.56H1965.51V390ZM1965.51 244.14L1918.19 196.82H1996.71C2005.38 196.82 2013.44 194.74 2020.89 190.58C2028.52 186.247 2034.67 179.747 2039.35 171.08C2044.03 162.413 2046.37 151.58 2046.37 138.58C2046.37 125.58 2044.03 115.093 2039.35 107.12C2034.67 99.1467 2028.52 93.4267 2020.89 89.96C2013.44 86.32 2005.38 84.5 1996.71 84.5H1918.19L1965.51 37.18V244.14ZM2231.99 84.5L2279.31 37.18V186.68L2255.91 158.6H2393.71V236.6H2255.91L2279.31 208.78V359.32L2231.99 312H2422.57V390H2173.75V6.49999H2422.57V84.5H2231.99ZM2456.56 390V6.49999H2626.6C2670.28 6.49999 2702.52 16.2067 2723.32 35.62C2744.3 54.86 2754.78 81.7266 2754.78 116.22C2754.78 135.633 2751.06 152.187 2743.6 165.88C2736.15 179.573 2726.88 190.147 2715.78 197.6C2704.69 205.053 2693.68 209.213 2682.76 210.08C2694.03 210.773 2704.52 213.46 2714.22 218.14C2723.93 222.82 2731.73 230.36 2737.62 240.76C2743.69 250.987 2746.72 264.853 2746.72 282.36C2746.72 293.453 2746.72 304.027 2746.72 314.08C2746.72 324.133 2746.72 334.707 2746.72 345.8C2746.72 354.987 2747.42 363.74 2748.8 372.06C2750.36 380.207 2752.7 386.187 2755.82 390H2650.78C2648.01 385.667 2645.84 379.513 2644.28 371.54C2642.9 363.567 2642.2 354.987 2642.2 345.8C2642.2 336.267 2642.2 327.687 2642.2 320.06C2642.2 312.433 2642.2 303.853 2642.2 294.32C2642.2 280.453 2639.26 269.533 2633.36 261.56C2627.47 253.413 2616.81 249.34 2601.38 249.34H2531.7L2559 217.36V390H2456.56ZM2559 208L2531.7 171.34H2602.42C2611.26 171.34 2618.98 169.52 2625.56 165.88C2632.32 162.24 2637.52 157.04 2641.16 150.28C2644.98 143.347 2646.88 135.287 2646.88 126.1C2646.88 114.833 2642.81 105.04 2634.66 96.72C2626.69 88.4 2615.77 84.24 2601.9 84.24H2529.1L2559 53.04V208Z" fill="#777777"/>
</svg>
