<svg width="3500" height="800" viewBox="0 0 2324 395" fill="none" xmlns="http://www.w3.org/2000/svg">
<path d="M0.540002 389V5.49999H115.2C140.68 5.49999 163.82 10.0933 184.62 19.28C205.42 28.2933 223.273 41.2066 238.18 58.02C253.087 74.8333 264.613 95.0267 272.76 118.6C280.907 142 284.98 168.087 284.98 196.86C284.98 225.633 280.907 251.807 272.76 275.38C264.613 298.78 253.087 318.973 238.18 335.96C223.273 352.947 205.42 366.033 184.62 375.22C163.82 384.407 140.68 389 115.2 389H0.540002ZM69.18 368.46L38.24 334.4H106.36C127.16 334.4 145.707 328.853 162 317.76C178.467 306.493 191.467 290.633 201 270.18C210.533 249.553 215.3 225.113 215.3 196.86C215.3 168.433 210.533 143.993 201 123.54C191.467 103.087 178.467 87.4 162 76.48C145.707 65.56 127.16 60.1 106.36 60.1H38.24L69.18 26.04V368.46ZM327.242 60.1L358.182 26.04V189.84L342.062 169.3H485.582V223.9H342.062L358.182 203.62V368.46L327.242 334.4H514.442V389H289.282V5.49999H514.442V60.1H327.242ZM609.874 390.3L512.114 5.49999H587.774L662.654 345.32H659.274L733.374 5.49999H809.034L712.054 390.3H609.874ZM841.758 60.1L872.698 26.04V189.84L856.578 169.3H1000.1V223.9H856.578L872.698 203.62V368.46L841.758 334.4H1028.96V389H803.798V5.49999H1028.96V60.1H841.758ZM1043.79 389V5.49999H1112.43V368.46L1081.49 332.32H1257.77V389H1043.79ZM1386.45 394.72C1363.22 394.72 1341.56 390.387 1321.45 381.72C1301.34 373.053 1283.66 360.313 1268.41 343.5C1253.33 326.513 1241.54 305.8 1233.05 281.36C1224.73 256.747 1220.57 228.58 1220.57 196.86C1220.57 165.14 1224.73 137.06 1233.05 112.62C1241.54 88.18 1253.33 67.64 1268.41 51C1283.49 34.1866 1301.08 21.5333 1321.19 13.04C1341.47 4.37332 1363.22 0.0399866 1386.45 0.0399866C1410.02 0.0399866 1431.86 4.37332 1451.97 13.04C1472.25 21.5333 1489.93 34.1866 1505.01 51C1520.09 67.64 1531.79 88.18 1540.11 112.62C1548.6 137.06 1552.85 165.14 1552.85 196.86C1552.85 228.58 1548.6 256.747 1540.11 281.36C1531.62 305.8 1519.74 326.513 1504.49 343.5C1489.41 360.313 1471.82 373.053 1451.71 381.72C1431.6 390.387 1409.85 394.72 1386.45 394.72ZM1386.45 338.3C1404.48 338.3 1420.77 333.447 1435.33 323.74C1449.89 313.86 1461.42 298.52 1469.91 277.72C1478.58 256.92 1482.91 229.967 1482.91 196.86C1482.91 163.58 1478.58 136.713 1469.91 116.26C1461.24 95.6333 1449.63 80.5533 1435.07 71.02C1420.51 61.4866 1404.3 56.72 1386.45 56.72C1368.94 56.72 1352.82 61.4866 1338.09 71.02C1323.53 80.5533 1311.83 95.6333 1302.99 116.26C1294.32 136.713 1289.99 163.58 1289.99 196.86C1289.99 230.14 1294.32 257.18 1302.99 277.98C1311.83 298.78 1323.53 314.033 1338.09 323.74C1352.82 333.447 1368.94 338.3 1386.45 338.3ZM1625.93 389H1557.29V5.49999H1680.53C1710 5.49999 1734.87 11.1333 1755.15 22.4C1775.6 33.4933 1791.12 48.66 1801.69 67.9C1812.44 86.9667 1817.81 108.287 1817.81 131.86C1817.81 155.607 1812.44 177.36 1801.69 197.12C1790.94 216.88 1775.26 232.74 1754.63 244.7C1734.18 256.487 1709.48 262.38 1680.53 262.38H1625.93V389ZM1625.93 240.54L1594.99 208.04H1672.99C1688.94 208.04 1702.54 205.007 1713.81 198.94C1725.08 192.7 1733.66 183.947 1739.55 172.68C1745.62 161.24 1748.65 147.633 1748.65 131.86C1748.65 116.087 1745.7 102.913 1739.81 92.34C1734.09 81.5933 1725.6 73.5333 1714.33 68.16C1703.06 62.7866 1689.28 60.1 1672.99 60.1H1594.99L1625.93 26.04V240.54ZM1857.08 60.1L1888.02 26.04V189.84L1871.9 169.3H2015.42V223.9H1871.9L1888.02 203.62V368.46L1857.08 334.4H2044.28V389H1819.12V5.49999H2044.28V60.1H1857.08ZM2059.11 389V5.49999H2206.79C2245.44 5.49999 2274.48 14.34 2293.89 32.02C2313.3 49.7 2323.01 75.7 2323.01 110.02C2323.01 130.127 2319.2 147.2 2311.57 161.24C2303.94 175.28 2294.67 186.113 2283.75 193.74C2272.83 201.367 2262.43 205.7 2252.55 206.74C2262.6 207.433 2272.31 210.033 2281.67 214.54C2291.03 219.047 2298.66 226.153 2304.55 235.86C2310.62 245.393 2313.65 258.307 2313.65 274.6C2313.65 287.6 2313.65 300.6 2313.65 313.6C2313.65 326.427 2313.65 339.34 2313.65 352.34C2313.65 360.487 2314.34 368.027 2315.73 374.96C2317.12 381.72 2318.85 386.4 2320.93 389H2252.03C2250.3 385.88 2248.74 381.113 2247.35 374.7C2246.14 368.113 2245.53 360.66 2245.53 352.34C2245.53 340.553 2245.53 329.027 2245.53 317.76C2245.53 306.32 2245.53 294.62 2245.53 282.66C2245.53 266.887 2241.11 254.927 2232.27 246.78C2223.43 238.633 2210.08 234.56 2192.23 234.56H2107.73L2125.93 211.42V389H2059.11ZM2125.93 205.7L2107.73 179.96H2192.75C2204.02 179.96 2214.16 177.36 2223.17 172.16C2232.18 166.787 2239.29 159.333 2244.49 149.8C2249.86 140.267 2252.55 129.087 2252.55 116.26C2252.55 97.54 2247.18 83.5 2236.43 74.14C2225.68 64.78 2210.43 60.1 2190.67 60.1H2105.91L2125.93 35.92V205.7Z" fill="#777777"/>
</svg>
