<svg width="837" height="259" viewBox="0 0 837 259" fill="none" xmlns="http://www.w3.org/2000/svg">
<path d="M247.886 37.625L268.711 14.7V124.95L257.861 111.125H354.461V147.875H257.861L268.711 134.225V245.175L247.886 222.25H373.886V259H222.336V0.874996H373.886V37.625H247.886ZM444.419 259H399.619V0.874996H471.894L566.219 240.275L559.394 242.2V0.874996H604.369V259H531.044L437.069 20.125L444.419 18.375V259ZM630.222 259V0.874996H707.397C724.547 0.874996 740.122 3.96666 754.122 10.15C768.122 16.2166 780.139 24.9083 790.172 36.225C800.206 47.5417 807.964 61.1333 813.447 77C818.931 92.75 821.672 110.308 821.672 129.675C821.672 149.042 818.931 166.658 813.447 182.525C807.964 198.275 800.206 211.867 790.172 223.3C780.139 234.733 768.122 243.542 754.122 249.725C740.122 255.908 724.547 259 707.397 259H630.222ZM676.422 245.175L655.597 222.25H701.447C715.447 222.25 727.931 218.517 738.897 211.05C749.981 203.467 758.731 192.792 765.147 179.025C771.564 165.142 774.772 148.692 774.772 129.675C774.772 110.542 771.564 94.0917 765.147 80.325C758.731 66.5583 749.981 56 738.897 48.65C727.931 41.3 715.447 37.625 701.447 37.625H655.597L676.422 14.7V245.175Z" fill="#777777"/>
<rect x="0.340332" y="111" width="222" height="37" fill="#777777"/>
</svg>
