<svg width="1604" height="525" viewBox="0 0 1604 525" fill="none" xmlns="http://www.w3.org/2000/svg">
<path d="M669.84 101.5L717.16 54.18V203.68L693.76 175.6H831.56V253.6H693.76L717.16 225.78V376.32L669.84 329H860.42V407H611.6V23.5H860.42V101.5H669.84ZM991.391 407H889.211V23.5H1049.37L1155.19 375.54L1134.91 379.7V23.5H1237.09V407H1075.63L969.811 56.26L991.391 52.1V407ZM1265.85 407V23.5H1408.33C1434.15 23.5 1457.81 28.2667 1479.31 37.8C1500.8 47.3333 1519.35 60.68 1534.95 77.84C1550.55 95 1562.59 115.193 1571.09 138.42C1579.58 161.647 1583.83 186.953 1583.83 214.34C1583.83 241.727 1579.58 267.12 1571.09 290.52C1562.59 313.92 1550.55 334.373 1534.95 351.88C1519.35 369.213 1500.8 382.733 1479.31 392.44C1457.81 402.147 1434.15 407 1408.33 407H1265.85ZM1370.89 376.32L1323.57 329H1394.29C1409.19 329 1422.89 324.407 1435.37 315.22C1448.02 305.86 1458.16 292.6 1465.79 275.44C1473.41 258.28 1477.23 237.913 1477.23 214.34C1477.23 190.593 1473.41 170.313 1465.79 153.5C1458.16 136.687 1448.02 123.86 1435.37 115.02C1422.89 106.007 1409.19 101.5 1394.29 101.5H1323.57L1370.89 54.18V376.32Z" fill="#777777"/>
<rect y="175" width="832" height="79" fill="#777777"/>
</svg>
