<svg width="973" height="384" viewBox="0 0 973 384" fill="none" xmlns="http://www.w3.org/2000/svg">
<path d="M58.84 78.5L106.16 31.18V180.68L82.76 152.6H220.56V230.6H82.76L106.16 202.78V353.32L58.84 306H249.42V384H0.600002V0.499994H249.42V78.5H58.84ZM380.391 384H278.211V0.499994H438.371L544.191 352.54L523.911 356.7V0.499994H626.091V384H464.631L358.811 33.26L380.391 29.1V384ZM654.845 384V0.499994H797.325C823.152 0.499994 846.812 5.26666 868.305 14.8C889.799 24.3333 908.345 37.68 923.945 54.84C939.545 72 951.592 92.1933 960.085 115.42C968.579 138.647 972.825 163.953 972.825 191.34C972.825 218.727 968.579 244.12 960.085 267.52C951.592 290.92 939.545 311.373 923.945 328.88C908.345 346.213 889.799 359.733 868.305 369.44C846.812 379.147 823.152 384 797.325 384H654.845ZM759.885 353.32L712.565 306H783.285C798.192 306 811.885 301.407 824.365 292.22C837.019 282.86 847.159 269.6 854.785 252.44C862.412 235.28 866.225 214.913 866.225 191.34C866.225 167.593 862.412 147.313 854.785 130.5C847.159 113.687 837.019 100.86 824.365 92.02C811.885 83.0067 798.192 78.5 783.285 78.5H712.565L759.885 31.18V353.32Z" fill="#777777"/>
</svg>
