<svg width="927" height="384" viewBox="0 0 927 384" fill="none" xmlns="http://www.w3.org/2000/svg">
<path d="M58.84 78.5L106.16 31.18V180.68L82.76 152.6H220.56V230.6H82.76L106.16 202.78V353.32L58.84 306H249.42V384H0.600002V0.499994H249.42V78.5H58.84ZM356.991 384H254.811V0.499994H414.971L520.791 352.54L500.511 356.7V0.499994H602.691V384H441.231L335.411 33.26L356.991 29.1V384ZM608.045 384V0.499994H750.525C776.352 0.499994 800.012 5.26666 821.505 14.8C842.999 24.3333 861.545 37.68 877.145 54.84C892.745 72 904.792 92.1933 913.285 115.42C921.779 138.647 926.025 163.953 926.025 191.34C926.025 218.727 921.779 244.12 913.285 267.52C904.792 290.92 892.745 311.373 877.145 328.88C861.545 346.213 842.999 359.733 821.505 369.44C800.012 379.147 776.352 384 750.525 384H608.045ZM713.085 353.32L665.765 306H736.485C751.392 306 765.085 301.407 777.565 292.22C790.219 282.86 800.359 269.6 807.985 252.44C815.612 235.28 819.425 214.913 819.425 191.34C819.425 167.593 815.612 147.313 807.985 130.5C800.359 113.687 790.219 100.86 777.565 92.02C765.085 83.0067 751.392 78.5 736.485 78.5H665.765L713.085 31.18V353.32Z" fill="#777777"/>
</svg>
