<svg width="1490" height="395" viewBox="0 0 1490 395" fill="none" xmlns="http://www.w3.org/2000/svg">
<path d="M37.72 60.1L68.66 26.04V192.18L47.34 173.72H203.86V228.58H47.34L68.66 208.82V389H0.540002V5.49999H227V60.1H37.72ZM256.315 389V5.49999H403.995C442.648 5.49999 471.682 14.34 491.095 32.02C510.508 49.7 520.215 75.7 520.215 110.02C520.215 130.127 516.402 147.2 508.775 161.24C501.148 175.28 491.875 186.113 480.955 193.74C470.035 201.367 459.635 205.7 449.755 206.74C459.808 207.433 469.515 210.033 478.875 214.54C488.235 219.047 495.862 226.153 501.755 235.86C507.822 245.393 510.855 258.307 510.855 274.6C510.855 287.6 510.855 300.6 510.855 313.6C510.855 326.427 510.855 339.34 510.855 352.34C510.855 360.487 511.548 368.027 512.935 374.96C514.322 381.72 516.055 386.4 518.135 389H449.235C447.502 385.88 445.942 381.113 444.555 374.7C443.342 368.113 442.735 360.66 442.735 352.34C442.735 340.553 442.735 329.027 442.735 317.76C442.735 306.32 442.735 294.62 442.735 282.66C442.735 266.887 438.315 254.927 429.475 246.78C420.635 238.633 407.288 234.56 389.435 234.56H304.935L323.135 211.42V389H256.315ZM323.135 205.7L304.935 179.96H389.955C401.222 179.96 411.362 177.36 420.375 172.16C429.388 166.787 436.495 159.333 441.695 149.8C447.068 140.267 449.755 129.087 449.755 116.26C449.755 97.54 444.382 83.5 433.635 74.14C422.888 64.78 407.635 60.1 387.875 60.1H303.115L323.135 35.92V205.7ZM707.179 394.72C683.953 394.72 662.286 390.387 642.179 381.72C622.073 373.053 604.393 360.313 589.139 343.5C574.059 326.513 562.273 305.8 553.779 281.36C545.459 256.747 541.299 228.58 541.299 196.86C541.299 165.14 545.459 137.06 553.779 112.62C562.273 88.18 574.059 67.64 589.139 51C604.219 34.1866 621.813 21.5333 641.919 13.04C662.199 4.37332 683.953 0.0399866 707.179 0.0399866C730.753 0.0399866 752.593 4.37332 772.699 13.04C792.979 21.5333 810.659 34.1866 825.739 51C840.819 67.64 852.519 88.18 860.839 112.62C869.333 137.06 873.579 165.14 873.579 196.86C873.579 228.58 869.333 256.747 860.839 281.36C852.346 305.8 840.473 326.513 825.219 343.5C810.139 360.313 792.546 373.053 772.439 381.72C752.333 390.387 730.579 394.72 707.179 394.72ZM707.179 338.3C725.206 338.3 741.499 333.447 756.059 323.74C770.619 313.86 782.146 298.52 790.639 277.72C799.306 256.92 803.639 229.967 803.639 196.86C803.639 163.58 799.306 136.713 790.639 116.26C781.973 95.6333 770.359 80.5533 755.799 71.02C741.239 61.4866 725.033 56.72 707.179 56.72C689.673 56.72 673.553 61.4866 658.819 71.02C644.259 80.5533 632.559 95.6333 623.719 116.26C615.053 136.713 610.719 163.58 610.719 196.86C610.719 230.14 615.053 257.18 623.719 277.98C632.559 298.78 644.259 314.033 658.819 323.74C673.553 333.447 689.673 338.3 707.179 338.3ZM967.98 389H901.42V5.49999H1008.8L1148.94 361.18L1138.8 364.04V5.49999H1205.62V389H1096.68L957.06 34.1L967.98 31.5V389ZM1489.73 60.1H1368.31L1393.53 26.04V389H1324.89V26.04L1351.41 60.1H1228.95V5.49999H1489.73V60.1Z" fill="#777777"/>
</svg>
