<svg width="1622" height="397" viewBox="0 0 1622 397" fill="none" xmlns="http://www.w3.org/2000/svg">
<path d="M57.8 84.5L105.12 37.18V189.54L73.14 164.84H231.22V243.1H73.14L105.12 216.32V390H0.600002V6.49999H254.36V84.5H57.8ZM277.703 390V6.49999H447.743C491.423 6.49999 523.663 16.2067 544.463 35.62C565.436 54.86 575.923 81.7266 575.923 116.22C575.923 135.633 572.196 152.187 564.743 165.88C557.29 179.573 548.016 190.147 536.923 197.6C525.83 205.053 514.823 209.213 503.903 210.08C515.17 210.773 525.656 213.46 535.363 218.14C545.07 222.82 552.87 230.36 558.763 240.76C564.83 250.987 567.863 264.853 567.863 282.36C567.863 293.453 567.863 304.027 567.863 314.08C567.863 324.133 567.863 334.707 567.863 345.8C567.863 354.987 568.556 363.74 569.943 372.06C571.503 380.207 573.843 386.187 576.963 390H471.923C469.15 385.667 466.983 379.513 465.423 371.54C464.036 363.567 463.343 354.987 463.343 345.8C463.343 336.267 463.343 327.687 463.343 320.06C463.343 312.433 463.343 303.853 463.343 294.32C463.343 280.453 460.396 269.533 454.503 261.56C448.61 253.413 437.95 249.34 422.523 249.34H352.843L380.143 217.36V390H277.703ZM380.143 208L352.843 171.34H423.563C432.403 171.34 440.116 169.52 446.703 165.88C453.463 162.24 458.663 157.04 462.303 150.28C466.116 143.347 468.023 135.287 468.023 126.1C468.023 114.833 463.95 105.04 455.803 96.72C447.83 88.4 436.91 84.24 423.043 84.24H350.243L380.143 53.04V208ZM769.643 396.76C744.857 396.76 721.283 392.513 698.923 384.02C676.737 375.527 657.063 362.873 639.903 346.06C622.743 329.247 609.223 308.447 599.343 283.66C589.463 258.873 584.523 230.273 584.523 197.86C584.523 165.273 589.377 136.673 599.083 112.06C608.963 87.4467 622.397 66.82 639.383 50.18C656.543 33.54 676.217 21.06 698.403 12.74C720.763 4.24664 744.51 -3.09944e-05 769.643 -3.09944e-05C794.777 -3.09944e-05 818.523 4.24664 840.883 12.74C863.243 21.06 882.917 33.54 899.903 50.18C917.063 66.82 930.497 87.4467 940.203 112.06C949.91 136.673 954.763 165.273 954.763 197.86C954.763 230.273 949.823 258.873 939.943 283.66C930.063 308.447 916.457 329.247 899.123 346.06C881.963 362.873 862.203 375.527 839.843 384.02C817.657 392.513 794.257 396.76 769.643 396.76ZM769.643 315.64C782.47 315.64 794.863 312.173 806.823 305.24C818.957 298.133 828.837 286 836.463 268.84C844.263 251.68 848.163 228.02 848.163 197.86C848.163 167.527 844.263 143.953 836.463 127.14C828.663 110.153 818.783 98.28 806.823 91.52C794.863 84.5867 782.47 81.12 769.643 81.12C756.99 81.12 744.597 84.5867 732.463 91.52C720.503 98.28 710.623 110.153 702.823 127.14C695.023 143.953 691.123 167.527 691.123 197.86C691.123 228.193 695.023 251.94 702.823 269.1C710.623 286.087 720.503 298.133 732.463 305.24C744.597 312.173 756.99 315.64 769.643 315.64ZM1075.26 390H973.081V6.49999H1133.24L1239.06 358.54L1218.78 362.7V6.49999H1320.96V390H1159.5L1053.68 39.26L1075.26 35.1V390ZM1621.16 84.5H1483.88L1531.2 37.18V390H1426.42V37.18L1473.74 84.5H1336.72V6.49999H1621.16V84.5Z" fill="#777777"/>
</svg>
