<svg width="1528" height="397" viewBox="0 0 1528 397" fill="none" xmlns="http://www.w3.org/2000/svg">
<path d="M57.8 84.5L105.12 37.18V189.54L73.14 164.84H231.22V243.1H73.14L105.12 216.32V390H0.600002V6.49999H254.36V84.5H57.8ZM254.303 390V6.49999H424.343C468.023 6.49999 500.263 16.2067 521.063 35.62C542.036 54.86 552.523 81.7266 552.523 116.22C552.523 135.633 548.796 152.187 541.343 165.88C533.89 179.573 524.616 190.147 513.523 197.6C502.43 205.053 491.423 209.213 480.503 210.08C491.77 210.773 502.256 213.46 511.963 218.14C521.67 222.82 529.47 230.36 535.363 240.76C541.43 250.987 544.463 264.853 544.463 282.36C544.463 293.453 544.463 304.027 544.463 314.08C544.463 324.133 544.463 334.707 544.463 345.8C544.463 354.987 545.156 363.74 546.543 372.06C548.103 380.207 550.443 386.187 553.563 390H448.523C445.75 385.667 443.583 379.513 442.023 371.54C440.636 363.567 439.943 354.987 439.943 345.8C439.943 336.267 439.943 327.687 439.943 320.06C439.943 312.433 439.943 303.853 439.943 294.32C439.943 280.453 436.996 269.533 431.103 261.56C425.21 253.413 414.55 249.34 399.123 249.34H329.443L356.743 217.36V390H254.303ZM356.743 208L329.443 171.34H400.163C409.003 171.34 416.716 169.52 423.303 165.88C430.063 162.24 435.263 157.04 438.903 150.28C442.716 143.347 444.623 135.287 444.623 126.1C444.623 114.833 440.55 105.04 432.403 96.72C424.43 88.4 413.51 84.24 399.643 84.24H326.843L356.743 53.04V208ZM722.843 396.76C698.057 396.76 674.483 392.513 652.123 384.02C629.937 375.527 610.263 362.873 593.103 346.06C575.943 329.247 562.423 308.447 552.543 283.66C542.663 258.873 537.723 230.273 537.723 197.86C537.723 165.273 542.577 136.673 552.283 112.06C562.163 87.4467 575.597 66.82 592.583 50.18C609.743 33.54 629.417 21.06 651.603 12.74C673.963 4.24664 697.71 -3.09944e-05 722.843 -3.09944e-05C747.977 -3.09944e-05 771.723 4.24664 794.083 12.74C816.443 21.06 836.117 33.54 853.103 50.18C870.263 66.82 883.697 87.4467 893.403 112.06C903.11 136.673 907.963 165.273 907.963 197.86C907.963 230.273 903.023 258.873 893.143 283.66C883.263 308.447 869.657 329.247 852.323 346.06C835.163 362.873 815.403 375.527 793.043 384.02C770.857 392.513 747.457 396.76 722.843 396.76ZM722.843 315.64C735.67 315.64 748.063 312.173 760.023 305.24C772.157 298.133 782.037 286 789.663 268.84C797.463 251.68 801.363 228.02 801.363 197.86C801.363 167.527 797.463 143.953 789.663 127.14C781.863 110.153 771.983 98.28 760.023 91.52C748.063 84.5867 735.67 81.12 722.843 81.12C710.19 81.12 697.797 84.5867 685.663 91.52C673.703 98.28 663.823 110.153 656.023 127.14C648.223 143.953 644.323 167.527 644.323 197.86C644.323 228.193 648.223 251.94 656.023 269.1C663.823 286.087 673.703 298.133 685.663 305.24C697.797 312.173 710.19 315.64 722.843 315.64ZM1005.06 390H902.881V6.49999H1063.04L1168.86 358.54L1148.58 362.7V6.49999H1250.76V390H1089.3L983.481 39.26L1005.06 35.1V390ZM1527.56 84.5H1390.28L1437.6 37.18V390H1332.82V37.18L1380.14 84.5H1243.12V6.49999H1527.56V84.5Z" fill="#777777"/>
</svg>
