<svg width="96" height="96" viewBox="0 0 96 96" fill="none" xmlns="http://www.w3.org/2000/svg">
<path fill-rule="evenodd" clip-rule="evenodd" d="M48 0C74.5104 0 96 22.0316 96 49.214C96 70.9532 82.2624 89.3949 63.2016 95.9085C60.768 96.3933 59.904 94.8564 59.904 93.546C59.904 91.9236 59.9616 86.6246 59.9616 80.039C59.9616 75.4502 58.4256 72.4552 56.7024 70.9288C67.392 69.7096 78.624 65.5476 78.624 46.6453C78.624 41.2693 76.7616 36.8823 73.68 33.4359C74.1792 32.1927 75.8256 27.1869 73.2096 20.4094C73.2096 20.4094 69.1872 19.0906 60.024 25.4554C56.1888 24.3658 52.08 23.8176 48 23.7984C43.92 23.8176 39.816 24.3658 35.9856 25.4554C26.8128 19.0906 22.7808 20.4094 22.7808 20.4094C20.1744 27.1869 21.8208 32.1927 22.3152 33.4359C19.248 36.8823 17.3712 41.2693 17.3712 46.6453C17.3712 65.4996 28.5792 69.7255 39.24 70.9687C37.8672 72.1975 36.624 74.3652 36.192 77.5476C33.456 78.8052 26.5056 80.9817 22.224 73.4601C22.224 73.4601 19.6848 68.7315 14.8656 68.3859C14.8656 68.3859 10.1856 68.3237 14.5392 71.3765C14.5392 71.3765 17.6832 72.8885 19.8672 78.5765C19.8672 78.5765 22.6848 87.3603 36.0384 84.3843C36.0624 88.4979 36.1056 92.3748 36.1056 93.546C36.1056 94.8468 35.2224 96.3692 32.8272 95.9132C13.752 89.4092 0 70.958 0 49.214C0 22.0316 21.4944 0 48 0Z" fill="#777777"/>
</svg>
