<svg width="1623" height="506" viewBox="0 0 1623 506" fill="none" xmlns="http://www.w3.org/2000/svg">
<path d="M673.5 68.1L704.44 34.04V197.84L688.32 177.3H831.84V231.9H688.32L704.44 211.62V376.46L673.5 342.4H860.7V397H635.54V13.5H860.7V68.1H673.5ZM965.492 397H898.932V13.5H1006.31L1146.45 369.18L1136.31 372.04V13.5H1203.13V397H1094.19L954.572 42.1L965.492 39.5V397ZM1241.54 397V13.5H1356.2C1381.68 13.5 1404.82 18.0933 1425.62 27.28C1446.42 36.2933 1464.28 49.2066 1479.18 66.02C1494.09 82.8333 1505.62 103.027 1513.76 126.6C1521.91 150 1525.98 176.087 1525.98 204.86C1525.98 233.633 1521.91 259.807 1513.76 283.38C1505.62 306.78 1494.09 326.973 1479.18 343.96C1464.28 360.947 1446.42 374.033 1425.62 383.22C1404.82 392.407 1381.68 397 1356.2 397H1241.54ZM1310.18 376.46L1279.24 342.4H1347.36C1368.16 342.4 1386.71 336.853 1403 325.76C1419.47 314.493 1432.47 298.633 1442 278.18C1451.54 257.553 1456.3 233.113 1456.3 204.86C1456.3 176.433 1451.54 151.993 1442 131.54C1432.47 111.087 1419.47 95.4 1403 84.48C1386.71 73.56 1368.16 68.1 1347.36 68.1H1279.24L1310.18 34.04V376.46Z" fill="#777777"/>
<rect y="177" width="635.54" height="55" fill="#777777"/>
</svg>
