<svg width="45" height="16" viewBox="0 0 45 16" fill="none" xmlns="http://www.w3.org/2000/svg">
<path d="M0.11957 15V0.9875H3.90057V15H0.11957ZM9.67108 15H5.93758V0.9875H11.7896L15.6561 13.8505L14.9151 14.0025V0.9875H18.6486V15H12.7491L8.88258 2.1845L9.67108 2.0325V15ZM22.8342 3.8375L24.5632 2.1085V7.6755L23.3947 6.773H29.1707V9.6325H23.3947L24.5632 8.654V15H20.7442V0.9875H30.0162V3.8375H22.8342ZM37.4446 15.247C36.539 15.247 35.6776 15.0918 34.8606 14.7815C34.05 14.4712 33.3311 14.0088 32.7041 13.3945C32.0771 12.7802 31.5831 12.0202 31.2221 11.1145C30.8611 10.2088 30.6806 9.16383 30.6806 7.9795C30.6806 6.78883 30.858 5.74383 31.2126 4.8445C31.5736 3.94517 32.0645 3.1915 32.6851 2.5835C33.3121 1.9755 34.031 1.5195 34.8416 1.2155C35.6586 0.905166 36.5263 0.749999 37.4446 0.749999C38.363 0.749999 39.2306 0.905166 40.0476 1.2155C40.8646 1.5195 41.5835 1.9755 42.2041 2.5835C42.8311 3.1915 43.322 3.94517 43.6766 4.8445C44.0313 5.74383 44.2086 6.78883 44.2086 7.9795C44.2086 9.16383 44.0281 10.2088 43.6671 11.1145C43.3061 12.0202 42.809 12.7802 42.1756 13.3945C41.5486 14.0088 40.8266 14.4712 40.0096 14.7815C39.199 15.0918 38.344 15.247 37.4446 15.247ZM37.4446 12.283C37.9133 12.283 38.3661 12.1563 38.8031 11.903C39.2465 11.6433 39.6075 11.2 39.8861 10.573C40.1711 9.946 40.3136 9.0815 40.3136 7.9795C40.3136 6.87117 40.1711 6.00983 39.8861 5.3955C39.6011 4.77483 39.2401 4.341 38.8031 4.094C38.3661 3.84067 37.9133 3.714 37.4446 3.714C36.9823 3.714 36.5295 3.84067 36.0861 4.094C35.6491 4.341 35.2881 4.77483 35.0031 5.3955C34.7181 6.00983 34.5756 6.87117 34.5756 7.9795C34.5756 9.08783 34.7181 9.9555 35.0031 10.5825C35.2881 11.2032 35.6491 11.6433 36.0861 11.903C36.5295 12.1563 36.9823 12.283 37.4446 12.283Z" fill="#CB450C"/>
</svg>
