<svg width="94" height="94" viewBox="0 0 94 94" fill="none" xmlns="http://www.w3.org/2000/svg">
<path d="M1.18629 33.5851C6.86505 56.1461 37.8739 87.1761 60.4309 92.8292C63.4759 93.6011 66.6046 93.9943 69.7459 94C75.7154 93.9972 81.593 92.53 86.8634 89.7271C88.7101 88.7625 90.3041 87.3774 91.5167 85.6833C92.7294 83.9893 93.5268 82.0338 93.8445 79.9748C94.1623 77.9158 93.9914 75.811 93.3458 73.8302C92.7002 71.8494 91.5979 70.0481 90.1279 68.5718L81.2146 59.6585C79.3252 57.7698 76.9106 56.4942 74.2855 55.998C71.6605 55.5018 68.9469 55.808 66.4985 56.8768C64.1626 57.8856 62.032 59.3151 60.213 61.0942C59.4524 61.8505 58.0508 61.9701 56.0383 61.4232C50.7621 59.2789 45.9688 56.0996 41.9413 52.0728C37.9137 48.0461 34.7335 43.2534 32.5883 37.9776C32.0499 35.9651 32.161 34.5593 32.9216 33.803C34.7027 31.9814 36.1337 29.848 37.1432 27.509C38.2095 25.0615 38.5144 22.3498 38.0183 19.7267C37.5222 17.1036 36.248 14.6905 34.3616 12.8015L25.4482 3.89247C23.9887 2.41514 22.1988 1.30603 20.2263 0.656697C18.2538 0.00735974 16.1551 -0.163598 14.1034 0.157932C12.0286 0.462637 10.0557 1.25564 8.34709 2.47169C6.63852 3.68773 5.2431 5.29208 4.27564 7.15272C-0.0285088 15.2656 -1.13099 24.6983 1.18629 33.5851ZM11.8516 11.118C12.2004 10.4503 12.7025 9.87489 13.3168 9.43888C13.9311 9.00288 14.64 8.71874 15.3853 8.60979C15.6213 8.57219 15.86 8.55361 16.0989 8.55424C16.7141 8.55403 17.3232 8.67592 17.8909 8.91283C18.4586 9.14975 18.9737 9.49697 19.4062 9.93439L28.3153 18.8435C28.9853 19.5056 29.4409 20.3537 29.623 21.2779C29.8051 22.2021 29.7053 23.1597 29.3365 24.0265C28.753 25.4176 27.9204 26.6904 26.8796 27.7824C25.3512 29.4107 24.306 31.4321 23.8608 33.6204C23.4155 35.8088 23.5879 38.0779 24.3585 40.1739C27.4436 51.7108 42.3263 66.5763 53.842 69.6571C55.9462 70.4263 58.2231 70.5939 60.4172 70.141C62.6113 69.6882 64.6358 68.6328 66.2635 67.0934C67.3491 66.0537 68.6145 65.2198 69.998 64.6322C70.8654 64.2625 71.8238 64.1622 72.7489 64.3443C73.674 64.5264 74.5229 64.9825 75.1854 65.6534L84.0945 74.5624C84.6182 75.0806 85.0113 75.7157 85.2416 76.4155C85.4719 77.1152 85.5327 77.8597 85.4191 78.5875C85.3081 79.3339 85.0212 80.0431 84.5821 80.6568C84.143 81.2705 83.5644 81.7709 82.8938 82.117C76.6547 85.47 69.3723 86.3196 62.5289 84.4927C43.1126 79.66 14.3598 50.9075 9.47156 31.4999C7.64712 24.6502 8.49807 17.363 11.8516 11.118Z" fill="#777777"/>
</svg>
