<svg width="107" height="16" viewBox="0 0 107 16" fill="none" xmlns="http://www.w3.org/2000/svg">
<path d="M4.19501 15H0.357012V0.9875H5.72451C6.78851 0.9875 7.71635 1.19967 8.50801 1.624C9.29968 2.042 9.91401 2.61517 10.351 3.3435C10.788 4.07183 11.0065 4.89517 11.0065 5.8135C11.0065 6.73183 10.788 7.56783 10.351 8.3215C9.91401 9.06883 9.29968 9.66733 8.50801 10.117C7.71635 10.5603 6.78851 10.782 5.72451 10.782H4.19501V15ZM4.19501 9.6705L2.46601 7.9415H5.33501C5.65168 7.9415 5.94618 7.8655 6.21851 7.7135C6.49718 7.55517 6.72201 7.31767 6.89301 7.001C7.06401 6.68433 7.14951 6.2885 7.14951 5.8135C7.14951 5.3385 7.06401 4.95533 6.89301 4.664C6.72201 4.37267 6.49718 4.16367 6.21851 4.037C5.94618 3.904 5.65168 3.8375 5.33501 3.8375H2.46601L4.19501 2.1085V9.6705ZM19.0428 15.247C18.1371 15.247 17.2758 15.0918 16.4588 14.7815C15.6481 14.4712 14.9293 14.0088 14.3023 13.3945C13.6753 12.7802 13.1813 12.0202 12.8203 11.1145C12.4593 10.2088 12.2788 9.16383 12.2788 7.9795C12.2788 6.78883 12.4561 5.74383 12.8108 4.8445C13.1718 3.94517 13.6626 3.1915 14.2833 2.5835C14.9103 1.9755 15.6291 1.5195 16.4398 1.2155C17.2568 0.905166 18.1244 0.749999 19.0428 0.749999C19.9611 0.749999 20.8288 0.905166 21.6458 1.2155C22.4628 1.5195 23.1816 1.9755 23.8023 2.5835C24.4293 3.1915 24.9201 3.94517 25.2748 4.8445C25.6294 5.74383 25.8068 6.78883 25.8068 7.9795C25.8068 9.16383 25.6263 10.2088 25.2653 11.1145C24.9043 12.0202 24.4071 12.7802 23.7738 13.3945C23.1468 14.0088 22.4248 14.4712 21.6078 14.7815C20.7971 15.0918 19.9421 15.247 19.0428 15.247ZM19.0428 12.283C19.5114 12.283 19.9643 12.1563 20.4013 11.903C20.8446 11.6433 21.2056 11.2 21.4843 10.573C21.7693 9.946 21.9118 9.0815 21.9118 7.9795C21.9118 6.87117 21.7693 6.00983 21.4843 5.3955C21.1993 4.77483 20.8383 4.341 20.4013 4.094C19.9643 3.84067 19.5114 3.714 19.0428 3.714C18.5804 3.714 18.1276 3.84067 17.6843 4.094C17.2473 4.341 16.8863 4.77483 16.6013 5.3955C16.3163 6.00983 16.1738 6.87117 16.1738 7.9795C16.1738 9.08783 16.3163 9.9555 16.6013 10.5825C16.8863 11.2032 17.2473 11.6433 17.6843 11.903C18.1276 12.1563 18.5804 12.283 19.0428 12.283ZM27.5211 15V0.9875H33.7341C35.3301 0.9875 36.5081 1.34217 37.2681 2.0515C38.0344 2.7545 38.4176 3.73617 38.4176 4.9965C38.4176 5.70583 38.2814 6.31067 38.0091 6.811C37.7367 7.31133 37.3979 7.69767 36.9926 7.97C36.5872 8.24233 36.1851 8.39433 35.7861 8.426C36.1977 8.45133 36.5809 8.5495 36.9356 8.7205C37.2902 8.8915 37.5752 9.167 37.7906 9.547C38.0122 9.92067 38.1231 10.4273 38.1231 11.067C38.1231 11.4723 38.1231 11.8587 38.1231 12.226C38.1231 12.5933 38.1231 12.9797 38.1231 13.385C38.1231 13.7207 38.1484 14.0405 38.1991 14.3445C38.2561 14.6422 38.3416 14.8607 38.4556 15H34.6176C34.5162 14.8417 34.4371 14.6168 34.3801 14.3255C34.3294 14.0342 34.3041 13.7207 34.3041 13.385C34.3041 13.0367 34.3041 12.7232 34.3041 12.4445C34.3041 12.1658 34.3041 11.8523 34.3041 11.504C34.3041 10.9973 34.1964 10.5983 33.9811 10.307C33.7657 10.0093 33.3762 9.8605 32.8126 9.8605H30.2666L31.2641 8.692V15H27.5211ZM31.2641 8.35L30.2666 7.0105H32.8506C33.1736 7.0105 33.4554 6.944 33.6961 6.811C33.9431 6.678 34.1331 6.488 34.2661 6.241C34.4054 5.98767 34.4751 5.69317 34.4751 5.3575C34.4751 4.94583 34.3262 4.588 34.0286 4.284C33.7372 3.98 33.3382 3.828 32.8316 3.828H30.1716L31.2641 2.688V8.35ZM49.7965 3.8375H44.7805L46.5095 2.1085V15H42.681V2.1085L44.41 3.8375H39.4035V0.9875H49.7965V3.8375ZM53.5095 3.8375L55.2385 2.1085V7.6755L54.07 6.773H59.846V9.6325H54.07L55.2385 8.654V15H51.4195V0.9875H60.6915V3.8375H53.5095ZM68.1199 15.247C67.2143 15.247 66.3529 15.0918 65.5359 14.7815C64.7253 14.4712 64.0064 14.0088 63.3794 13.3945C62.7524 12.7802 62.2584 12.0202 61.8974 11.1145C61.5364 10.2088 61.3559 9.16383 61.3559 7.9795C61.3559 6.78883 61.5333 5.74383 61.8879 4.8445C62.2489 3.94517 62.7398 3.1915 63.3604 2.5835C63.9874 1.9755 64.7063 1.5195 65.5169 1.2155C66.3339 0.905166 67.2016 0.749999 68.1199 0.749999C69.0383 0.749999 69.9059 0.905166 70.7229 1.2155C71.5399 1.5195 72.2588 1.9755 72.8794 2.5835C73.5064 3.1915 73.9973 3.94517 74.3519 4.8445C74.7066 5.74383 74.8839 6.78883 74.8839 7.9795C74.8839 9.16383 74.7034 10.2088 74.3424 11.1145C73.9814 12.0202 73.4843 12.7802 72.8509 13.3945C72.2239 14.0088 71.5019 14.4712 70.6849 14.7815C69.8743 15.0918 69.0193 15.247 68.1199 15.247ZM68.1199 12.283C68.5886 12.283 69.0414 12.1563 69.4784 11.903C69.9218 11.6433 70.2828 11.2 70.5614 10.573C70.8464 9.946 70.9889 9.0815 70.9889 7.9795C70.9889 6.87117 70.8464 6.00983 70.5614 5.3955C70.2764 4.77483 69.9154 4.341 69.4784 4.094C69.0414 3.84067 68.5886 3.714 68.1199 3.714C67.6576 3.714 67.2048 3.84067 66.7614 4.094C66.3244 4.341 65.9634 4.77483 65.6784 5.3955C65.3934 6.00983 65.2509 6.87117 65.2509 7.9795C65.2509 9.08783 65.3934 9.9555 65.6784 10.5825C65.9634 11.2032 66.3244 11.6433 66.7614 11.903C67.2048 12.1563 67.6576 12.283 68.1199 12.283ZM76.5982 15V0.9875H80.4362V13.8695L78.7072 11.9505H85.4332V15H76.5982ZM87.0527 15V0.9875H90.8337V15H87.0527ZM99.2547 15.247C98.349 15.247 97.4877 15.0918 96.6707 14.7815C95.86 14.4712 95.1412 14.0088 94.5142 13.3945C93.8872 12.7802 93.3932 12.0202 93.0322 11.1145C92.6712 10.2088 92.4907 9.16383 92.4907 7.9795C92.4907 6.78883 92.668 5.74383 93.0227 4.8445C93.3837 3.94517 93.8745 3.1915 94.4952 2.5835C95.1222 1.9755 95.841 1.5195 96.6517 1.2155C97.4687 0.905166 98.3364 0.749999 99.2547 0.749999C100.173 0.749999 101.041 0.905166 101.858 1.2155C102.675 1.5195 103.394 1.9755 104.014 2.5835C104.641 3.1915 105.132 3.94517 105.487 4.8445C105.841 5.74383 106.019 6.78883 106.019 7.9795C106.019 9.16383 105.838 10.2088 105.477 11.1145C105.116 12.0202 104.619 12.7802 103.986 13.3945C103.359 14.0088 102.637 14.4712 101.82 14.7815C101.009 15.0918 100.154 15.247 99.2547 15.247ZM99.2547 12.283C99.7234 12.283 100.176 12.1563 100.613 11.903C101.057 11.6433 101.418 11.2 101.696 10.573C101.981 9.946 102.124 9.0815 102.124 7.9795C102.124 6.87117 101.981 6.00983 101.696 5.3955C101.411 4.77483 101.05 4.341 100.613 4.094C100.176 3.84067 99.7234 3.714 99.2547 3.714C98.7924 3.714 98.3395 3.84067 97.8962 4.094C97.4592 4.341 97.0982 4.77483 96.8132 5.3955C96.5282 6.00983 96.3857 6.87117 96.3857 7.9795C96.3857 9.08783 96.5282 9.9555 96.8132 10.5825C97.0982 11.2032 97.4592 11.6433 97.8962 11.903C98.3395 12.1563 98.7924 12.283 99.2547 12.283Z" fill="#CB450C"/>
</svg>
