<svg width="102" height="93" viewBox="0 0 102 93" fill="none" xmlns="http://www.w3.org/2000/svg">
<path fill-rule="evenodd" clip-rule="evenodd" d="M101.804 11.0612C103.272 3.93384 96.2432 -1.98917 89.4295 0.633041L5.90659 32.7755C-1.7026 35.7038 -2.04165 46.3021 5.36489 49.7067L23.5538 58.0686L32.2066 88.233C32.656 89.7999 33.9043 91.0131 35.488 91.422C37.0717 91.8304 38.7543 91.3741 39.9111 90.2216L53.2397 76.9457L71.9106 90.8935C77.3304 94.942 85.1363 91.9932 86.4975 85.383L101.804 11.0612ZM9.23473 41.3554L92.7576 9.21294L77.4513 83.5351L55.577 67.1939C53.7388 65.8207 51.1665 66.0028 49.5417 67.6212L43.8329 73.3074L45.5482 63.9112L79.1579 30.4347C80.7938 28.8055 80.9665 26.2222 79.5624 24.3912C78.1582 22.5601 75.6109 22.0466 73.6024 23.1897L27.1864 49.6078L9.23473 41.3554ZM32.8459 56.9805L35.6457 66.7414L36.7206 60.8524C36.8887 59.9321 37.3345 59.0845 37.9986 58.4232L48.2484 48.2143L32.8459 56.9805Z" fill="#777777"/>
</svg>
