<svg width="187" height="41" viewBox="0 0 187 41" fill="none" xmlns="http://www.w3.org/2000/svg">
<path d="M2.4035 2.6975L3.3345 1.6145V7.8465L2.6885 7.2575H8.379V8.9675H2.6885L3.3345 8.3405V15H1.2825V0.9875H9.2245V2.6975H2.4035ZM10.9603 15V4.911H13.0218V8.1315L12.4708 7.8845C12.5152 7.47283 12.6197 7.08017 12.7843 6.7065C12.949 6.33283 13.1675 6.00033 13.4398 5.709C13.7185 5.41133 14.0605 5.177 14.4658 5.006C14.8712 4.835 15.3398 4.7495 15.8718 4.7495C16.2772 4.7495 16.6033 4.78117 16.8503 4.8445C17.1037 4.90783 17.2588 4.9585 17.3158 4.9965L16.8788 6.9345C16.8155 6.89017 16.6857 6.83317 16.4893 6.7635C16.2993 6.69383 16.0333 6.659 15.6913 6.659C15.172 6.659 14.7413 6.75083 14.3993 6.9345C14.0573 7.11817 13.785 7.362 13.5823 7.666C13.3797 7.97 13.234 8.3025 13.1453 8.6635C13.063 9.01817 13.0218 9.376 13.0218 9.737V15H10.9603ZM23.6639 15.19C22.6252 15.19 21.7069 14.9652 20.9089 14.5155C20.1172 14.0658 19.4966 13.4483 19.0469 12.663C18.6036 11.8713 18.3819 10.9657 18.3819 9.946C18.3819 8.93267 18.6036 8.0365 19.0469 7.2575C19.4966 6.47217 20.1172 5.861 20.9089 5.424C21.7069 4.98067 22.6252 4.759 23.6639 4.759C24.7026 4.759 25.6177 4.98067 26.4094 5.424C27.2074 5.861 27.8281 6.47217 28.2714 7.2575C28.7211 8.0365 28.9459 8.93267 28.9459 9.946C28.9459 10.9657 28.7211 11.8713 28.2714 12.663C27.8281 13.4483 27.2074 14.0658 26.4094 14.5155C25.6177 14.9652 24.7026 15.19 23.6639 15.19ZM23.6639 13.423C24.2972 13.423 24.8546 13.2805 25.3359 12.9955C25.8172 12.7105 26.1941 12.3083 26.4664 11.789C26.7387 11.2633 26.8749 10.649 26.8749 9.946C26.8749 9.24933 26.7387 8.6445 26.4664 8.1315C26.1941 7.6185 25.8172 7.22267 25.3359 6.944C24.8546 6.66533 24.2972 6.526 23.6639 6.526C23.0369 6.526 22.4796 6.66533 21.9919 6.944C21.5106 7.22267 21.1337 7.6185 20.8614 8.1315C20.5891 8.6445 20.4529 9.24933 20.4529 9.946C20.4529 10.649 20.5891 11.2633 20.8614 11.789C21.1337 12.3083 21.5106 12.7105 21.9919 12.9955C22.4796 13.2805 23.0369 13.423 23.6639 13.423ZM38.4226 15V10.345C38.4226 10.0727 38.4226 9.8415 38.4226 9.6515C38.4226 9.4615 38.4226 9.28417 38.4226 9.1195C38.4226 8.6255 38.3466 8.19167 38.1946 7.818C38.0426 7.438 37.7924 7.1435 37.4441 6.9345C37.0958 6.71917 36.6303 6.6115 36.0476 6.6115C35.5346 6.6115 35.0691 6.73817 34.6511 6.9915C34.2394 7.24483 33.9101 7.59 33.6631 8.027C33.4224 8.45767 33.3021 8.9485 33.3021 9.4995L32.4186 9.0625C32.4186 8.2455 32.6118 7.514 32.9981 6.868C33.3844 6.21567 33.9006 5.6995 34.5466 5.3195C35.1989 4.9395 35.9114 4.7495 36.6841 4.7495C37.4821 4.7495 38.1629 4.90467 38.7266 5.215C39.2966 5.519 39.7304 5.956 40.0281 6.526C40.3321 7.08967 40.4841 7.76417 40.4841 8.5495C40.4841 8.84083 40.4841 9.16383 40.4841 9.5185C40.4841 9.87317 40.4841 10.2152 40.4841 10.5445V15H38.4226ZM31.2406 15V4.911H33.3021V15H31.2406ZM47.1317 15.171C46.7961 15.171 46.4604 15.1362 46.1247 15.0665C45.7954 14.9968 45.4914 14.8702 45.2127 14.6865C44.9404 14.4965 44.7219 14.2273 44.5572 13.879C44.3926 13.5307 44.3102 13.0747 44.3102 12.511C44.3102 12.378 44.3102 12.2387 44.3102 12.093C44.3102 11.9473 44.3102 11.7985 44.3102 11.6465V6.621H41.8877V4.911H43.1607C43.4331 4.911 43.6452 4.9015 43.7972 4.8825C43.9556 4.85717 44.0696 4.80333 44.1392 4.721C44.2152 4.63233 44.2627 4.493 44.2817 4.303C44.3007 4.113 44.3102 3.85333 44.3102 3.524V1.5765H46.3717V4.911H49.4592V6.621H46.3717V11.0955C46.3717 11.2222 46.3717 11.3488 46.3717 11.4755C46.3717 11.6022 46.3717 11.7193 46.3717 11.827C46.3717 12.3337 46.4319 12.7327 46.5522 13.024C46.6789 13.3153 46.9639 13.461 47.4072 13.461C47.5972 13.461 47.7777 13.4452 47.9487 13.4135C48.1197 13.3818 48.2496 13.347 48.3382 13.309V14.9905C48.2242 15.0348 48.0627 15.076 47.8537 15.114C47.6447 15.152 47.4041 15.171 47.1317 15.171ZM51.8627 10.6775V9.072H59.2917L59.0067 9.547C59.0067 9.509 59.0067 9.471 59.0067 9.433C59.0067 9.38867 59.0067 9.35067 59.0067 9.319C59.0067 8.806 58.8959 8.33417 58.6742 7.9035C58.4526 7.4665 58.1201 7.11817 57.6767 6.8585C57.2397 6.5925 56.6919 6.4595 56.0332 6.4595C55.3746 6.4595 54.7951 6.602 54.2947 6.887C53.8007 7.16567 53.4144 7.56467 53.1357 8.084C52.8634 8.597 52.7272 9.2145 52.7272 9.9365C52.7272 10.6712 52.8602 11.3045 53.1262 11.8365C53.3922 12.3622 53.7754 12.7675 54.2757 13.0525C54.7761 13.3375 55.3746 13.48 56.0712 13.48C56.5589 13.48 56.9801 13.4325 57.3347 13.3375C57.6957 13.2362 57.9902 13.1032 58.2182 12.9385C58.4526 12.7738 58.6299 12.5965 58.7502 12.4065C58.8706 12.2102 58.9402 12.017 58.9592 11.827H61.0112C60.9732 12.2387 60.8371 12.6472 60.6027 13.0525C60.3747 13.4515 60.0486 13.8157 59.6242 14.145C59.2062 14.468 58.6932 14.7277 58.0852 14.924C57.4836 15.114 56.7901 15.209 56.0047 15.209C54.9534 15.209 54.0319 14.9873 53.2402 14.544C52.4486 14.1007 51.8311 13.4863 51.3877 12.701C50.9444 11.9093 50.7227 11.0037 50.7227 9.984C50.7227 8.94533 50.9476 8.03333 51.3972 7.248C51.8469 6.46267 52.4707 5.8515 53.2687 5.4145C54.0667 4.97117 54.9819 4.7495 56.0142 4.7495C57.0656 4.7495 57.9744 4.97117 58.7407 5.4145C59.5134 5.85783 60.1087 6.469 60.5267 7.248C60.9447 8.027 61.1537 8.92317 61.1537 9.9365C61.1537 10.0568 61.1506 10.1962 61.1442 10.3545C61.1379 10.5128 61.1284 10.6205 61.1157 10.6775H51.8627ZM70.6335 15V10.345C70.6335 10.0727 70.6335 9.8415 70.6335 9.6515C70.6335 9.4615 70.6335 9.28417 70.6335 9.1195C70.6335 8.6255 70.5575 8.19167 70.4055 7.818C70.2535 7.438 70.0034 7.1435 69.655 6.9345C69.3067 6.71917 68.8412 6.6115 68.2585 6.6115C67.7455 6.6115 67.28 6.73817 66.862 6.9915C66.4504 7.24483 66.121 7.59 65.874 8.027C65.6334 8.45767 65.513 8.9485 65.513 9.4995L64.6295 9.0625C64.6295 8.2455 64.8227 7.514 65.209 6.868C65.5954 6.21567 66.1115 5.6995 66.7575 5.3195C67.4099 4.9395 68.1224 4.7495 68.895 4.7495C69.693 4.7495 70.3739 4.90467 70.9375 5.215C71.5075 5.519 71.9414 5.956 72.239 6.526C72.543 7.08967 72.695 7.76417 72.695 8.5495C72.695 8.84083 72.695 9.16383 72.695 9.5185C72.695 9.87317 72.695 10.2152 72.695 10.5445V15H70.6335ZM63.4515 15V4.911H65.513V15H63.4515ZM79.4694 15.1995C78.6398 15.1995 77.8766 15 77.1799 14.601C76.4833 14.1957 75.9259 13.6003 75.5079 12.815C75.0899 12.0297 74.8809 11.0702 74.8809 9.9365C74.8809 8.82817 75.0931 7.88767 75.5174 7.115C75.9418 6.34233 76.5023 5.7565 77.1989 5.3575C77.8956 4.95217 78.6524 4.7495 79.4694 4.7495C80.2548 4.7495 80.9831 4.9395 81.6544 5.3195C82.3321 5.6995 82.8768 6.22833 83.2884 6.906C83.7001 7.57733 83.9059 8.35317 83.9059 9.2335C83.9059 9.25883 83.9059 9.28417 83.9059 9.3095C83.9059 9.3285 83.9059 9.3475 83.9059 9.3665L82.7089 9.4045C82.7089 9.3855 82.7089 9.3665 82.7089 9.3475C82.7089 9.32217 82.7089 9.3 82.7089 9.281C82.7089 8.75533 82.5759 8.28983 82.3099 7.8845C82.0439 7.47283 81.6924 7.14983 81.2554 6.9155C80.8248 6.67483 80.3656 6.5545 79.8779 6.5545C79.0609 6.5545 78.3769 6.83 77.8259 7.381C77.2749 7.92567 76.9994 8.7775 76.9994 9.9365C76.9994 11.0892 77.2749 11.9442 77.8259 12.5015C78.3833 13.0525 79.0673 13.328 79.8779 13.328C80.3846 13.328 80.8533 13.2077 81.2839 12.967C81.7146 12.72 82.0598 12.3843 82.3194 11.96C82.5791 11.5357 82.7089 11.0512 82.7089 10.5065L83.9059 10.554C83.9059 11.428 83.7064 12.2165 83.3074 12.9195C82.9148 13.6225 82.3828 14.1798 81.7114 14.5915C81.0464 14.9968 80.2991 15.1995 79.4694 15.1995ZM82.7089 15V0.151499H84.7799V15H82.7089ZM92.1077 15V0.9875H95.9552C96.8862 0.9875 97.7285 1.15217 98.4822 1.4815C99.2359 1.81083 99.8787 2.2795 100.411 2.8875C100.949 3.4955 101.364 4.23017 101.655 5.0915C101.947 5.95283 102.092 6.9155 102.092 7.9795C102.092 9.04983 101.947 10.0157 101.655 10.877C101.364 11.7383 100.949 12.4762 100.411 13.0905C99.8787 13.7048 99.2359 14.1767 98.4822 14.506C97.7285 14.8353 96.8862 15 95.9552 15H92.1077ZM94.1787 14.373L93.2477 13.29H95.7082C96.5315 13.29 97.2662 13.0747 97.9122 12.644C98.5645 12.2133 99.0744 11.6022 99.4417 10.8105C99.809 10.0125 99.9927 9.06883 99.9927 7.9795C99.9927 6.88383 99.809 5.94333 99.4417 5.158C99.0744 4.36633 98.5645 3.75833 97.9122 3.334C97.2662 2.90967 96.5315 2.6975 95.7082 2.6975H93.2477L94.1787 1.6145V14.373ZM105.078 10.6775V9.072H112.507L112.222 9.547C112.222 9.509 112.222 9.471 112.222 9.433C112.222 9.38867 112.222 9.35067 112.222 9.319C112.222 8.806 112.111 8.33417 111.889 7.9035C111.667 7.4665 111.335 7.11817 110.892 6.8585C110.455 6.5925 109.907 6.4595 109.248 6.4595C108.589 6.4595 108.01 6.602 107.51 6.887C107.016 7.16567 106.629 7.56467 106.351 8.084C106.078 8.597 105.942 9.2145 105.942 9.9365C105.942 10.6712 106.075 11.3045 106.341 11.8365C106.607 12.3622 106.99 12.7675 107.491 13.0525C107.991 13.3375 108.589 13.48 109.286 13.48C109.774 13.48 110.195 13.4325 110.55 13.3375C110.911 13.2362 111.205 13.1032 111.433 12.9385C111.667 12.7738 111.845 12.5965 111.965 12.4065C112.085 12.2102 112.155 12.017 112.174 11.827H114.226C114.188 12.2387 114.052 12.6472 113.818 13.0525C113.59 13.4515 113.263 13.8157 112.839 14.145C112.421 14.468 111.908 14.7277 111.3 14.924C110.698 15.114 110.005 15.209 109.22 15.209C108.168 15.209 107.247 14.9873 106.455 14.544C105.663 14.1007 105.046 13.4863 104.603 12.701C104.159 11.9093 103.938 11.0037 103.938 9.984C103.938 8.94533 104.162 8.03333 104.612 7.248C105.062 6.46267 105.686 5.8515 106.484 5.4145C107.282 4.97117 108.197 4.7495 109.229 4.7495C110.28 4.7495 111.189 4.97117 111.956 5.4145C112.728 5.85783 113.324 6.469 113.742 7.248C114.16 8.027 114.369 8.92317 114.369 9.9365C114.369 10.0568 114.365 10.1962 114.359 10.3545C114.353 10.5128 114.343 10.6205 114.331 10.6775H105.078ZM124.778 4.911L121.51 15H118.774L115.421 4.911H117.549L120.304 14.1355H119.981L122.65 4.911H124.778ZM126.805 10.6775V9.072H134.234L133.949 9.547C133.949 9.509 133.949 9.471 133.949 9.433C133.949 9.38867 133.949 9.35067 133.949 9.319C133.949 8.806 133.838 8.33417 133.617 7.9035C133.395 7.4665 133.062 7.11817 132.619 6.8585C132.182 6.5925 131.634 6.4595 130.976 6.4595C130.317 6.4595 129.737 6.602 129.237 6.887C128.743 7.16567 128.357 7.56467 128.078 8.084C127.806 8.597 127.67 9.2145 127.67 9.9365C127.67 10.6712 127.803 11.3045 128.069 11.8365C128.335 12.3622 128.718 12.7675 129.218 13.0525C129.718 13.3375 130.317 13.48 131.014 13.48C131.501 13.48 131.922 13.4325 132.277 13.3375C132.638 13.2362 132.933 13.1032 133.161 12.9385C133.395 12.7738 133.572 12.5965 133.693 12.4065C133.813 12.2102 133.883 12.017 133.902 11.827H135.954C135.916 12.2387 135.779 12.6472 135.545 13.0525C135.317 13.4515 134.991 13.8157 134.567 14.145C134.149 14.468 133.636 14.7277 133.028 14.924C132.426 15.114 131.732 15.209 130.947 15.209C129.896 15.209 128.974 14.9873 128.183 14.544C127.391 14.1007 126.773 13.4863 126.33 12.701C125.887 11.9093 125.665 11.0037 125.665 9.984C125.665 8.94533 125.89 8.03333 126.34 7.248C126.789 6.46267 127.413 5.8515 128.211 5.4145C129.009 4.97117 129.924 4.7495 130.957 4.7495C132.008 4.7495 132.917 4.97117 133.683 5.4145C134.456 5.85783 135.051 6.469 135.469 7.248C135.887 8.027 136.096 8.92317 136.096 9.9365C136.096 10.0568 136.093 10.1962 136.087 10.3545C136.08 10.5128 136.071 10.6205 136.058 10.6775H126.805ZM140.569 0.151499V15H138.536V0.151499H140.569ZM148.203 15.19C147.164 15.19 146.246 14.9652 145.448 14.5155C144.656 14.0658 144.036 13.4483 143.586 12.663C143.143 11.8713 142.921 10.9657 142.921 9.946C142.921 8.93267 143.143 8.0365 143.586 7.2575C144.036 6.47217 144.656 5.861 145.448 5.424C146.246 4.98067 147.164 4.759 148.203 4.759C149.242 4.759 150.157 4.98067 150.948 5.424C151.746 5.861 152.367 6.47217 152.81 7.2575C153.26 8.0365 153.485 8.93267 153.485 9.946C153.485 10.9657 153.26 11.8713 152.81 12.663C152.367 13.4483 151.746 14.0658 150.948 14.5155C150.157 14.9652 149.242 15.19 148.203 15.19ZM148.203 13.423C148.836 13.423 149.394 13.2805 149.875 12.9955C150.356 12.7105 150.733 12.3083 151.005 11.789C151.278 11.2633 151.414 10.649 151.414 9.946C151.414 9.24933 151.278 8.6445 151.005 8.1315C150.733 7.6185 150.356 7.22267 149.875 6.944C149.394 6.66533 148.836 6.526 148.203 6.526C147.576 6.526 147.019 6.66533 146.531 6.944C146.05 7.22267 145.673 7.6185 145.4 8.1315C145.128 8.6445 144.992 9.24933 144.992 9.946C144.992 10.649 145.128 11.2633 145.4 11.789C145.673 12.3083 146.05 12.7105 146.531 12.9955C147.019 13.2805 147.576 13.423 148.203 13.423ZM155.78 19.1515V4.911H157.841V19.1515H155.78ZM161.09 15.1995C160.305 15.1995 159.576 15.0032 158.905 14.6105C158.234 14.2115 157.689 13.6668 157.271 12.9765C156.859 12.2862 156.654 11.504 156.654 10.63C156.654 10.6047 156.654 10.5857 156.654 10.573C156.654 10.554 156.654 10.535 156.654 10.516L157.851 10.4875C157.851 10.5002 157.851 10.516 157.851 10.535C157.851 10.5477 157.851 10.5635 157.851 10.5825C157.851 11.1018 157.984 11.5705 158.25 11.9885C158.522 12.4002 158.873 12.7263 159.304 12.967C159.735 13.2077 160.197 13.328 160.691 13.328C161.502 13.328 162.183 13.0525 162.734 12.5015C163.291 11.9442 163.57 11.0892 163.57 9.9365C163.57 8.7775 163.294 7.92567 162.743 7.381C162.192 6.83 161.508 6.5545 160.691 6.5545C160.197 6.5545 159.735 6.67483 159.304 6.9155C158.873 7.14983 158.522 7.47283 158.25 7.8845C157.984 8.28983 157.851 8.75533 157.851 9.281L156.654 9.2335C156.654 8.35317 156.859 7.57733 157.271 6.906C157.689 6.22833 158.234 5.6995 158.905 5.3195C159.576 4.9395 160.305 4.7495 161.09 4.7495C161.907 4.7495 162.664 4.95217 163.361 5.3575C164.057 5.7565 164.618 6.34233 165.042 7.115C165.473 7.88767 165.688 8.82817 165.688 9.9365C165.688 11.0702 165.479 12.0297 165.061 12.815C164.643 13.6003 164.086 14.1957 163.389 14.601C162.692 15 161.926 15.1995 161.09 15.1995ZM168.702 10.6775V9.072H176.131L175.846 9.547C175.846 9.509 175.846 9.471 175.846 9.433C175.846 9.38867 175.846 9.35067 175.846 9.319C175.846 8.806 175.735 8.33417 175.513 7.9035C175.291 7.4665 174.959 7.11817 174.516 6.8585C174.079 6.5925 173.531 6.4595 172.872 6.4595C172.213 6.4595 171.634 6.602 171.134 6.887C170.64 7.16567 170.253 7.56467 169.975 8.084C169.702 8.597 169.566 9.2145 169.566 9.9365C169.566 10.6712 169.699 11.3045 169.965 11.8365C170.231 12.3622 170.614 12.7675 171.115 13.0525C171.615 13.3375 172.213 13.48 172.91 13.48C173.398 13.48 173.819 13.4325 174.174 13.3375C174.535 13.2362 174.829 13.1032 175.057 12.9385C175.291 12.7738 175.469 12.5965 175.589 12.4065C175.709 12.2102 175.779 12.017 175.798 11.827H177.85C177.812 12.2387 177.676 12.6472 177.442 13.0525C177.214 13.4515 176.887 13.8157 176.463 14.145C176.045 14.468 175.532 14.7277 174.924 14.924C174.322 15.114 173.629 15.209 172.844 15.209C171.792 15.209 170.871 14.9873 170.079 14.544C169.287 14.1007 168.67 13.4863 168.227 12.701C167.783 11.9093 167.562 11.0037 167.562 9.984C167.562 8.94533 167.786 8.03333 168.236 7.248C168.686 6.46267 169.31 5.8515 170.108 5.4145C170.906 4.97117 171.821 4.7495 172.853 4.7495C173.904 4.7495 174.813 4.97117 175.58 5.4145C176.352 5.85783 176.948 6.469 177.366 7.248C177.784 8.027 177.993 8.92317 177.993 9.9365C177.993 10.0568 177.989 10.1962 177.983 10.3545C177.977 10.5128 177.967 10.6205 177.955 10.6775H168.702ZM180.29 15V4.911H182.352V8.1315L181.801 7.8845C181.845 7.47283 181.95 7.08017 182.114 6.7065C182.279 6.33283 182.498 6.00033 182.77 5.709C183.049 5.41133 183.391 5.177 183.796 5.006C184.201 4.835 184.67 4.7495 185.202 4.7495C185.607 4.7495 185.933 4.78117 186.18 4.8445C186.434 4.90783 186.589 4.9585 186.646 4.9965L186.209 6.9345C186.146 6.89017 186.016 6.83317 185.819 6.7635C185.629 6.69383 185.363 6.659 185.021 6.659C184.502 6.659 184.071 6.75083 183.729 6.9345C183.387 7.11817 183.115 7.362 182.912 7.666C182.71 7.97 182.564 8.3025 182.475 8.6635C182.393 9.01817 182.352 9.376 182.352 9.737V15H180.29ZM2.5935 40V31.621H0.418V29.911H2.5935V28.809C2.5935 28.2897 2.65683 27.8242 2.7835 27.4125C2.9165 27.0008 3.10017 26.6462 3.3345 26.3485C3.56883 26.0445 3.84433 25.7943 4.161 25.598C4.484 25.4017 4.8355 25.256 5.2155 25.161C5.60183 25.0597 6.004 25.009 6.422 25.009C6.764 25.009 7.03 25.0312 7.22 25.0755C7.41633 25.1135 7.54617 25.1483 7.6095 25.18V26.8995C7.5335 26.8742 7.40367 26.8457 7.22 26.814C7.03633 26.7823 6.84 26.7665 6.631 26.7665C6.22567 26.7665 5.89317 26.8267 5.6335 26.947C5.37383 27.0673 5.17117 27.2352 5.0255 27.4505C4.87983 27.6595 4.7785 27.9033 4.7215 28.182C4.67083 28.4543 4.6455 28.7457 4.6455 29.056V29.911H7.5145V31.621H4.6455V40H2.5935ZM13.6444 40.19C12.6057 40.19 11.6874 39.9652 10.8894 39.5155C10.0977 39.0658 9.47704 38.4483 9.02738 37.663C8.58404 36.8713 8.36238 35.9657 8.36238 34.946C8.36238 33.9327 8.58404 33.0365 9.02738 32.2575C9.47704 31.4722 10.0977 30.861 10.8894 30.424C11.6874 29.9807 12.6057 29.759 13.6444 29.759C14.683 29.759 15.5982 29.9807 16.3899 30.424C17.1879 30.861 17.8085 31.4722 18.2519 32.2575C18.7015 33.0365 18.9264 33.9327 18.9264 34.946C18.9264 35.9657 18.7015 36.8713 18.2519 37.663C17.8085 38.4483 17.1879 39.0658 16.3899 39.5155C15.5982 39.9652 14.683 40.19 13.6444 40.19ZM13.6444 38.423C14.2777 38.423 14.835 38.2805 15.3164 37.9955C15.7977 37.7105 16.1745 37.3083 16.4469 36.789C16.7192 36.2633 16.8554 35.649 16.8554 34.946C16.8554 34.2493 16.7192 33.6445 16.4469 33.1315C16.1745 32.6185 15.7977 32.2227 15.3164 31.944C14.835 31.6653 14.2777 31.526 13.6444 31.526C13.0174 31.526 12.46 31.6653 11.9724 31.944C11.491 32.2227 11.1142 32.6185 10.8419 33.1315C10.5695 33.6445 10.4334 34.2493 10.4334 34.946C10.4334 35.649 10.5695 36.2633 10.8419 36.789C11.1142 37.3083 11.491 37.7105 11.9724 37.9955C12.46 38.2805 13.0174 38.423 13.6444 38.423ZM23.3966 25.1515V40H21.3636V25.1515H23.3966ZM26.1851 40V29.911H28.2181V40H26.1851ZM27.2111 27.821C26.8565 27.821 26.5493 27.726 26.2896 27.536C26.0363 27.3397 25.9096 27.0705 25.9096 26.7285C25.9096 26.3928 26.0363 26.13 26.2896 25.94C26.5493 25.7437 26.8565 25.6455 27.2111 25.6455C27.5595 25.6455 27.8603 25.7437 28.1136 25.94C28.3733 26.13 28.5031 26.3928 28.5031 26.7285C28.5031 27.0705 28.3733 27.3397 28.1136 27.536C27.8603 27.726 27.5595 27.821 27.2111 27.821ZM35.8358 40.19C34.7971 40.19 33.8788 39.9652 33.0808 39.5155C32.2891 39.0658 31.6684 38.4483 31.2188 37.663C30.7754 36.8713 30.5538 35.9657 30.5538 34.946C30.5538 33.9327 30.7754 33.0365 31.2188 32.2575C31.6684 31.4722 32.2891 30.861 33.0808 30.424C33.8788 29.9807 34.7971 29.759 35.8358 29.759C36.8744 29.759 37.7896 29.9807 38.5813 30.424C39.3793 30.861 39.9999 31.4722 40.4433 32.2575C40.8929 33.0365 41.1178 33.9327 41.1178 34.946C41.1178 35.9657 40.8929 36.8713 40.4433 37.663C39.9999 38.4483 39.3793 39.0658 38.5813 39.5155C37.7896 39.9652 36.8744 40.19 35.8358 40.19ZM35.8358 38.423C36.4691 38.423 37.0264 38.2805 37.5078 37.9955C37.9891 37.7105 38.3659 37.3083 38.6383 36.789C38.9106 36.2633 39.0468 35.649 39.0468 34.946C39.0468 34.2493 38.9106 33.6445 38.6383 33.1315C38.3659 32.6185 37.9891 32.2227 37.5078 31.944C37.0264 31.6653 36.4691 31.526 35.8358 31.526C35.2088 31.526 34.6514 31.6653 34.1638 31.944C33.6824 32.2227 33.3056 32.6185 33.0333 33.1315C32.7609 33.6445 32.6248 34.2493 32.6248 34.946C32.6248 35.649 32.7609 36.2633 33.0333 36.789C33.3056 37.3083 33.6824 37.7105 34.1638 37.9955C34.6514 38.2805 35.2088 38.423 35.8358 38.423ZM47.8965 40V38.2615C47.9471 38.0272 48.1023 37.7422 48.362 37.4065C48.6216 37.0645 48.9383 36.7003 49.312 36.314C49.6856 35.9277 50.0783 35.5413 50.49 35.155C50.908 34.7687 51.2975 34.414 51.6585 34.091C52.1018 33.6857 52.5356 33.2677 52.96 32.837C53.3843 32.4 53.7358 31.9408 54.0145 31.4595C54.2995 30.9718 54.442 30.4588 54.442 29.9205C54.442 29.1605 54.2615 28.5747 53.9005 28.163C53.5458 27.745 53.0043 27.536 52.276 27.536C51.6933 27.536 51.2278 27.6595 50.8795 27.9065C50.5311 28.1535 50.281 28.5018 50.129 28.9515C49.977 29.3948 49.901 29.9142 49.901 30.5095H47.83C47.83 29.5658 47.9946 28.7425 48.324 28.0395C48.6596 27.3302 49.16 26.7823 49.825 26.396C50.49 26.0033 51.3165 25.807 52.3045 25.807C53.2355 25.807 54.0113 25.9843 54.632 26.339C55.259 26.6937 55.7276 27.1813 56.038 27.802C56.3546 28.4227 56.513 29.1352 56.513 29.9395C56.513 30.4715 56.4116 30.9813 56.209 31.469C56.0126 31.9503 55.753 32.4032 55.43 32.8275C55.1133 33.2518 54.7713 33.6445 54.404 34.0055C54.0366 34.3665 53.6883 34.6927 53.359 34.984C52.8206 35.4527 52.3266 35.896 51.877 36.314C51.4336 36.7257 51.0663 37.0993 50.775 37.435C50.49 37.7643 50.3158 38.043 50.2525 38.271H56.551V40H47.8965ZM63.3427 40.1995C62.5384 40.1995 61.8512 40.0127 61.2812 39.639C60.7112 39.2653 60.2489 38.7492 59.8942 38.0905C59.5396 37.4255 59.2799 36.6592 59.1152 35.7915C58.9506 34.9238 58.8682 34.0023 58.8682 33.027C58.8682 32.0517 58.9506 31.1302 59.1152 30.2625C59.2799 29.3885 59.5396 28.619 59.8942 27.954C60.2489 27.2827 60.7112 26.757 61.2812 26.377C61.8512 25.997 62.5384 25.807 63.3427 25.807C64.1534 25.807 64.8437 25.997 65.4137 26.377C65.9837 26.757 66.4429 27.2827 66.7912 27.954C67.1459 28.619 67.4056 29.3885 67.5702 30.2625C67.7349 31.1302 67.8172 32.0517 67.8172 33.027C67.8172 34.0023 67.7349 34.9238 67.5702 35.7915C67.4056 36.6592 67.1459 37.4255 66.7912 38.0905C66.4429 38.7492 65.9837 39.2653 65.4137 39.639C64.8437 40.0127 64.1534 40.1995 63.3427 40.1995ZM63.3427 38.4895C63.8811 38.4895 64.3244 38.29 64.6727 37.891C65.0274 37.492 65.2934 36.8872 65.4707 36.0765C65.6481 35.2658 65.7367 34.2493 65.7367 33.027C65.7367 31.7983 65.6481 30.7818 65.4707 29.9775C65.2934 29.1668 65.0274 28.5588 64.6727 28.1535C64.3244 27.7482 63.8811 27.5455 63.3427 27.5455C62.8107 27.5455 62.3674 27.7482 62.0127 28.1535C61.6581 28.5588 61.3921 29.1668 61.2147 29.9775C61.0374 30.7818 60.9487 31.7983 60.9487 33.027C60.9487 34.2557 61.0374 35.2753 61.2147 36.086C61.3921 36.8903 61.6581 37.492 62.0127 37.891C62.3674 38.29 62.8107 38.4895 63.3427 38.4895ZM69.9951 40V38.2615C70.0458 38.0272 70.2009 37.7422 70.4606 37.4065C70.7203 37.0645 71.0369 36.7003 71.4106 36.314C71.7843 35.9277 72.1769 35.5413 72.5886 35.155C73.0066 34.7687 73.3961 34.414 73.7571 34.091C74.2004 33.6857 74.6343 33.2677 75.0586 32.837C75.4829 32.4 75.8344 31.9408 76.1131 31.4595C76.3981 30.9718 76.5406 30.4588 76.5406 29.9205C76.5406 29.1605 76.3601 28.5747 75.9991 28.163C75.6444 27.745 75.1029 27.536 74.3746 27.536C73.7919 27.536 73.3264 27.6595 72.9781 27.9065C72.6298 28.1535 72.3796 28.5018 72.2276 28.9515C72.0756 29.3948 71.9996 29.9142 71.9996 30.5095H69.9286C69.9286 29.5658 70.0933 28.7425 70.4226 28.0395C70.7583 27.3302 71.2586 26.7823 71.9236 26.396C72.5886 26.0033 73.4151 25.807 74.4031 25.807C75.3341 25.807 76.1099 25.9843 76.7306 26.339C77.3576 26.6937 77.8263 27.1813 78.1366 27.802C78.4533 28.4227 78.6116 29.1352 78.6116 29.9395C78.6116 30.4715 78.5103 30.9813 78.3076 31.469C78.1113 31.9503 77.8516 32.4032 77.5286 32.8275C77.2119 33.2518 76.8699 33.6445 76.5026 34.0055C76.1353 34.3665 75.7869 34.6927 75.4576 34.984C74.9193 35.4527 74.4253 35.896 73.9756 36.314C73.5323 36.7257 73.1649 37.0993 72.8736 37.435C72.5886 37.7643 72.4144 38.043 72.3511 38.271H78.6496V40H69.9951ZM87.4079 32.6185C87.9652 32.6375 88.4212 32.7958 88.7759 33.0935C89.1369 33.3848 89.4029 33.7743 89.5739 34.262C89.7512 34.7433 89.8399 35.2785 89.8399 35.8675C89.8399 36.6718 89.6879 37.4033 89.3839 38.062C89.0799 38.7143 88.6112 39.2337 87.9779 39.62C87.3509 40.0063 86.5465 40.1995 85.5649 40.1995C84.7479 40.1995 84.0575 40.0918 83.4939 39.8765C82.9302 39.6548 82.4774 39.3445 82.1354 38.9455C81.7997 38.5402 81.5527 38.0588 81.3944 37.5015C81.2424 36.9442 81.1664 36.3298 81.1664 35.6585C81.1664 35.6522 81.1664 35.6458 81.1664 35.6395C81.1664 35.6332 81.1664 35.6268 81.1664 35.6205H83.2374C83.2374 35.6268 83.2374 35.6332 83.2374 35.6395C83.2374 35.6458 83.2374 35.6522 83.2374 35.6585C83.2374 36.3995 83.3292 36.9758 83.5129 37.3875C83.7029 37.7992 83.972 38.0873 84.3204 38.252C84.675 38.4103 85.0994 38.4895 85.5934 38.4895C86.2584 38.4895 86.784 38.2742 87.1704 37.8435C87.563 37.4065 87.7594 36.732 87.7594 35.82C87.7594 35.4907 87.7245 35.1835 87.6549 34.8985C87.5915 34.6135 87.4744 34.3665 87.3034 34.1575C87.1324 33.9422 86.8949 33.7743 86.5909 33.654C86.2932 33.5273 85.91 33.464 85.4414 33.464H84.9284V31.8965H85.4414C85.8974 31.8965 86.2742 31.8363 86.5719 31.716C86.8759 31.5893 87.1134 31.4215 87.2844 31.2125C87.4554 30.9972 87.5757 30.7597 87.6454 30.5C87.7214 30.234 87.7594 29.9617 87.7594 29.683C87.7594 28.923 87.5662 28.3752 87.1799 28.0395C86.7935 27.7038 86.2742 27.536 85.6219 27.536C84.9062 27.536 84.3299 27.726 83.8929 28.106C83.4559 28.486 83.2374 29.1763 83.2374 30.177H81.1664C81.1664 29.55 81.2519 28.9705 81.4229 28.4385C81.6002 27.9065 81.8662 27.4442 82.2209 27.0515C82.5819 26.6525 83.041 26.3453 83.5984 26.13C84.1557 25.9147 84.8175 25.807 85.5839 25.807C86.5592 25.807 87.3604 25.978 87.9874 26.32C88.6144 26.662 89.0799 27.118 89.3839 27.688C89.6879 28.258 89.8399 28.8882 89.8399 29.5785C89.8399 30.1042 89.7512 30.595 89.5739 31.051C89.4029 31.5007 89.1369 31.868 88.7759 32.153C88.4212 32.438 87.9652 32.5932 87.4079 32.6185Z" fill="#777777"/>
</svg>
