<svg width="600" height="600" viewBox="0 0 301 397" fill="none" xmlns="http://www.w3.org/2000/svg">
<path d="M149.7 396.76C121.273 396.76 95.7933 392.253 73.26 383.24C50.7267 374.053 32.8733 360.447 19.7 342.42C6.7 324.393 0.2 302.033 0.2 275.34C0.2 273.087 0.2 270.833 0.2 268.58C0.2 266.327 0.2 264.073 0.2 261.82H104.98C104.98 263.727 104.98 265.633 104.98 267.54C104.98 269.447 104.98 271.353 104.98 273.26C104.98 285.393 108.707 295.533 116.16 303.68C123.787 311.827 135.313 315.9 150.74 315.9C165.647 315.9 177.347 313.733 185.84 309.4C194.507 304.893 198.84 297.613 198.84 287.56C198.84 280.107 194.767 273.173 186.62 266.76C178.647 260.347 167.813 254.28 154.12 248.56C140.6 242.84 125.52 237.38 108.88 232.18C90.8533 226.46 73.6933 218.747 57.4 209.04C41.28 199.333 28.1067 186.767 17.88 171.34C7.65333 155.74 2.54 136.413 2.54 113.36C2.54 89.6133 9.12667 69.3333 22.3 52.52C35.4733 35.5333 53.1533 22.5333 75.34 13.52C97.7 4.50664 122.487 -3.09944e-05 149.7 -3.09944e-05C177.953 -3.09944e-05 203.173 4.41997 225.36 13.26C247.72 22.1 265.4 35.1 278.4 52.26C291.4 69.42 297.9 90.6533 297.9 115.96C297.9 118.213 297.9 120.38 297.9 122.46C297.9 124.54 297.9 126.707 297.9 128.96H193.12C193.12 128.093 193.12 126.793 193.12 125.06C193.12 123.153 193.12 121.767 193.12 120.9C193.12 109.633 189.913 100.1 183.5 92.3C177.26 84.5 166.427 80.6 151 80.6C135.747 80.6 123.96 83.3733 115.64 88.92C107.493 94.4666 103.42 102.527 103.42 113.1C103.42 120.553 106.887 127.14 113.82 132.86C120.753 138.407 130.287 143.607 142.42 148.46C154.727 153.313 168.593 158.513 184.02 164.06C207.247 172.207 227.613 181.22 245.12 191.1C262.627 200.807 276.233 213.027 285.94 227.76C295.82 242.493 300.76 261.387 300.76 284.44C300.76 308.533 294.26 328.987 281.26 345.8C268.26 362.44 250.32 375.093 227.44 383.76C204.733 392.427 178.82 396.76 149.7 396.76Z" fill="#2F2F2F" fill-opacity="0.929412"/>
</svg>
