<svg width="16" height="17" viewBox="0 0 16 17" fill="none" xmlns="http://www.w3.org/2000/svg">
<path d="M10.2857 13.3929V11.7857C10.2857 11.692 10.2556 11.615 10.1953 11.5547C10.135 11.4944 10.058 11.4643 9.96429 11.4643H9V6.32143C9 6.22768 8.96987 6.15067 8.9096 6.0904C8.84933 6.03013 8.77232 6 8.67857 6H5.46429C5.37054 6 5.29353 6.03013 5.23326 6.0904C5.17299 6.15067 5.14286 6.22768 5.14286 6.32143V7.92857C5.14286 8.02232 5.17299 8.09933 5.23326 8.1596C5.29353 8.21987 5.37054 8.25 5.46429 8.25H6.42857V11.4643H5.46429C5.37054 11.4643 5.29353 11.4944 5.23326 11.5547C5.17299 11.615 5.14286 11.692 5.14286 11.7857V13.3929C5.14286 13.4866 5.17299 13.5636 5.23326 13.6239C5.29353 13.6842 5.37054 13.7143 5.46429 13.7143H9.96429C10.058 13.7143 10.135 13.6842 10.1953 13.6239C10.2556 13.5636 10.2857 13.4866 10.2857 13.3929ZM9 4.39286V2.78571C9 2.69196 8.96987 2.61495 8.9096 2.55469C8.84933 2.49442 8.77232 2.46429 8.67857 2.46429H6.75C6.65625 2.46429 6.57924 2.49442 6.51897 2.55469C6.45871 2.61495 6.42857 2.69196 6.42857 2.78571V4.39286C6.42857 4.48661 6.45871 4.56362 6.51897 4.62388C6.57924 4.68415 6.65625 4.71429 6.75 4.71429H8.67857C8.77232 4.71429 8.84933 4.68415 8.9096 4.62388C8.96987 4.56362 9 4.48661 9 4.39286ZM14.394 4.70424C15.0837 5.88281 15.4286 7.17187 15.4286 8.57143C15.4286 9.97098 15.0837 11.2634 14.394 12.4487C13.7042 13.6272 12.7667 14.5614 11.5815 15.2511C10.4029 15.9408 9.11384 16.2857 7.71429 16.2857C6.31473 16.2857 5.02232 15.9408 3.83705 15.2511C2.65848 14.5614 1.72433 13.6272 1.0346 12.4487C0.344866 11.2634 0 9.97098 0 8.57143C0 7.17187 0.344866 5.88281 1.0346 4.70424C1.72433 3.51897 2.65848 2.58147 3.83705 1.89174C5.02232 1.20201 6.31473 0.857142 7.71429 0.857142C9.11384 0.857142 10.4029 1.20201 11.5815 1.89174C12.7667 2.58147 13.7042 3.51897 14.394 4.70424Z" fill="white"/>
</svg>
